<?xml version="1.0" encoding="utf-8"?>
<!-- Generator: Adobe Illustrator 17.0.0, SVG Export Plug-In . SVG Version: 6.00 Build 0)  -->
<!DOCTYPE svg PUBLIC "-//W3C//DTD SVG 1.1//EN" "http://www.w3.org/Graphics/SVG/1.1/DTD/svg11.dtd">
<svg version="1.1" id="Layer_1" xmlns="http://www.w3.org/2000/svg" xmlns:xlink="http://www.w3.org/1999/xlink" x="0px" y="0px"
	 width="612px" height="792px" viewBox="0 0 612 792" enable-background="new 0 0 612 792" xml:space="preserve">
<path fill="#FFFFFF" stroke="#FFFFFF" d="M23.302,343.653c-0.357-2.196-0.239-4.443,0.347-6.588
	c0.734-2.078,1.605-4.104,2.606-6.067c1.35-2.813,2.311-5.788,3.746-8.568c0.407-1.301,0.331-2.705-0.215-3.954
	c-0.762-4.042-1.228-8.135-1.393-12.245c-0.092-1.088,0.133-2.179,0.648-3.142c0.657-1.522,1.415-2.999,2.268-4.42
	c2.255-3.042,3.805-6.547,4.537-10.262c0.49-2.309,1.35-4.523,2.548-6.556c2.805-5.154,5.613-10.307,8.424-15.457
	c0.246-0.482,0.551-0.932,0.908-1.338c2.442-2.801,3.341-6.627,2.404-10.223c-0.475-3.007-0.381-6.1-0.809-9.118
	c-0.533-3.762,0.172-7.574-0.613-11.303c-0.35-0.696-0.069-1.543,0.626-1.893c0.327-0.164,0.705-0.195,1.054-0.086
	c2.094,0.035,4.157,0.511,6.054,1.396c2.805,1.489,5.79,2.611,8.882,3.338c0.949,0.205,1.039-0.331,1.204-0.837
	c0.719-2.202,1.406-4.415,2.061-6.638c0.001-1.978,1.605-3.582,3.584-3.581c0.483,0,0.96,0.098,1.404,0.287
	c2.946,0.352,5.928,0.388,8.877,0.718c6.005,0.674,11.911,1.908,17.822,3.163c7.362,1.869,14.838,3.258,22.381,4.158
	c2.942,0.26,5.847,0.833,8.667,1.71c4.65,1.412,9.484,1.834,14.169,3.007c3.081,0.772,6.241,1.108,9.354,1.702
	c5.999,1.144,12.071,1.843,18.057,3.092c3.361,0.701,6.823,0.9,10.221,1.442c3.978,0.635,7.891,1.607,11.828,2.451
	c3.14,0.673,6.209,1.608,9.352,2.251c2.3,0.308,4.616,0.483,6.936,0.525c4.178,0.367,8.353,0.793,12.538,1.041
	c4.892,0.29,9.751,1.045,14.677,0.921c2.742-0.069,5.463,0.502,8.22,0.561c2.737,0.059,5.459-0.026,8.187-0.15
	c5.239-0.378,10.495-0.467,15.743-0.268c5.125,0.328,10.277,0.744,15.404,0.644c6.037-0.118,12.072-0.156,18.103-0.015
	c5.431,0.127,10.859,0.465,16.285,0.828c5.663,0.379,11.343,0.496,17.013,0.837c3.857,0.232,7.527,1.272,11.3,1.825
	c3.363,0.448,6.685,1.158,9.937,2.124c0.976,0.265,1.986,0.387,2.997,0.36c0.98,0.199,1.885,0.67,2.609,1.36
	c0.642,0.324,0.283,0.999,0.081,1.435c-1.942,4.195-4.444,8.107-6.211,12.402c-0.574,1.394-1.07,2.824-1.7,4.193
	c-0.385,0.836,0.036,0.964,0.676,0.936c2.619,0.273,5.218,0.714,7.781,1.321c0.939,0.188,1.914-0.036,2.676-0.615
	c2.908-2.323,5.934-4.501,8.81-6.862c1.312-1.35,2.729-2.593,4.236-3.72c1.312-0.779,2.823-0.509,4.119-1.245
	c0.703-0.174,1.445,0.045,1.94,0.573c1.965,1.321,3.811,2.81,5.519,4.45c1.171,1.122,2.49,2.078,3.921,2.842
	c0.86,0.653,2.086,0.486,2.739-0.374c0.001-0.002,0.003-0.003,0.004-0.005c2.566-2.855,6.417-3.888,9.186-6.472
	c0.597-0.529,1.485-0.563,2.121-0.081c3.748,2.018,7.797,3.415,11.991,4.139c1.604,0.41,3.11,1.121,4.688,1.626
	c1.141,0.711,1.669,2.096,1.292,3.386c-0.006,1.106-1.056,1.191-1.954,1.25c-5.387,0.358-10.66,1.504-15.975,2.353
	c-0.898,0.218-1.71,0.698-2.333,1.38c-2.094,2.107-3.976,4.414-5.62,6.888c-0.697,1.231-2.261,1.664-3.492,0.966
	c-0.209-0.119-0.401-0.266-0.569-0.438c-2.159-2.067-3.088-0.972-3.94,0.686c-0.91,1.771-1.818,3.543-2.758,5.299
	c-0.68,1.197-0.706,2.657-0.069,3.878c0.56,1.626,1.233,3.211,2.014,4.743c0.364,0.728,0.911,1.349,1.588,1.801
	c1.623,0.887,2.405,2.788,1.877,4.56c-0.376,3.192-1.173,6.32-2.371,9.303c-1.159,2.709-1.278,5.75-0.334,8.542
	c1.112,3.523,1.941,7.137,3.305,10.586c0.059,0.15,0.078,0.315,0.138,0.464c0.345,2.137,2.358,3.59,4.495,3.245
	c0.48-0.078,0.942-0.244,1.361-0.49c0.046-0.028,0.096-0.05,0.148-0.066c2.093-0.016,3.777-1.726,3.762-3.819
	c-0.002-0.261-0.031-0.521-0.086-0.776c0.365-2.232,0.334-4.511-0.091-6.732c-0.11-1.346,0.161-2.696,0.782-3.896
	c0.115-0.354,0.323-0.676,0.446-1.028c1.412-1.573,1.956-3.743,1.451-5.796c-0.8-1.951-1.965-3.732-3.431-5.247
	c-0.991-0.785-1.551-1.994-1.508-3.257c0.218-2.8,0.036-5.618-0.54-8.367c-0.321-1.569,0.298-3.181,1.587-4.131
	c2.167-1.955,3.759-4.464,4.604-7.258c0.566-3.46,3.682-5.914,7.179-5.653c2.953,0.021,5.897,0.315,8.795,0.879
	c0.992-0.138,1.908,0.554,2.047,1.546c0.021,0.153,0.023,0.308,0.005,0.462c-0.138,3.016,1.299,5.888,3.795,7.587
	c0.937,0.882,1.752,1.886,2.423,2.985c0.263,0.288,0.305,0.715,0.104,1.049c-1.353,2.417-2.411,4.986-3.153,7.655
	c-0.153,0.608-0.369,1.124,0.438,1.455c0.518,0.368,1.235,0.247,1.603-0.271c0.059-0.083,0.107-0.174,0.142-0.27
	c0.208-0.44,0.445-0.865,0.709-1.274c0.191-0.605,0.837-0.94,1.442-0.749c0.19,0.06,0.36,0.168,0.496,0.314
	c1.592,0.768,3.103,1.695,4.509,2.767c2.273,2.327,3.781,5.217,5.859,7.68c0.126,0.237,0.167,0.51,0.117,0.773
	c-0.255,3.078-0.598,6.144-1.083,9.197c-0.449,2.487-0.678,5.008-0.687,7.534c0.021,1.175-0.834,2.043-0.786,3.244
	c0.038,0.948,0.098,1.205,1.162,1.273c3.857,0.115,7.607-1.273,10.461-3.87c3.395-2.643,6.939-5.088,10.616-7.323
	c5.279-3.282,10.14-7.163,15.287-10.635c0.57-0.385,0.64-0.745,0.044-1.217c-0.494-0.334-0.91-0.772-1.217-1.283
	c-0.949-1.823-0.857-1.893,0.819-3.004c5.976-3.963,12.632-6.73,18.639-10.613c2.454-1.586,5.068-2.848,7.551-4.359
	c0.688-0.35,1.138-1.039,1.182-1.809c0.493-2.654,0.661-5.358,0.501-8.053c-0.081-0.664,0.255-1.309,0.846-1.624
	c4.942-3.644,10.127-6.945,15.519-9.882c2.99-1.642,5.578-3.849,8.388-5.74c2.654-1.776,5.662-2.954,8.816-3.454
	c1.705-0.477,3.005-1.858,3.379-3.588c1.276-3.149,4.016-5.472,7.332-6.214c0.859-0.229,1.443-1.026,1.402-1.915
	c0.475-3.79,0.991-7.575,1.402-11.371c0.474-4.374,0.83-8.761,1.285-13.138c0.173-1.668,0.728-1.922,2.467-1.897
	c2.194,0.168,4.4,0.095,6.578-0.219c3.08-0.624,5.155,0.114,5.075,3.868c0.034,0.863,0.213,1.714,0.53,2.517
	c0.409,1.833,0.495,3.724,0.256,5.586c-0.104,0.539,0.099,1.092,0.526,1.437c2.783,1.843,4.927,4.421,7.522,6.491
	c1.701,1.357,3.632,2.297,5.377,3.557c3.565,2.575,3.172,3.577,0.402,6.059c-2.544,2.279-4.742,4.857-7.201,7.184
	c-2.565,2.426-4.593,5.31-7.075,7.79c-1.097,1.13-1.963,2.463-2.55,3.924c-1.877,4.463-5.615,7.712-7.805,11.856
	c-2.055,3.069-4.963,5.47-8.365,6.906c-5.273,2.661-10.316,5.755-15.077,9.251c-0.882,0.748-1.23,1.952-0.884,3.055
	c0.549,2.893,1.119,5.785,1.573,8.694c0.707,4.951,1.065,9.946,1.073,14.948c0.038,2.629,0.262,5.274,0.493,7.865
	c0.025,1.402-0.205,2.796-0.679,4.116c-0.914,3.703-2.647,7.144-3.544,10.878c-0.075,1.677-1.2,3.123-2.806,3.61
	c-0.802,0.168-0.514,2.477,0.385,3.335c2.912,2.347,3.645,6.482,1.719,9.687c-0.134,0.299-0.36,0.548-0.646,0.71
	c-1.878,0.957-3.66,2.092-5.319,3.392c-0.664,0.433-0.801,0.784-1.306-0.485c-1.436-3.611-1.544-7.554-3.111-11.089
	c-0.606-1.368-1.085-1.375-2.279-0.486c-1.881,1.315-2.662,3.718-1.913,5.887c0.571,2.42,0.476,2.465-1.974,3.219
	c-1.411,0.391-2.73,1.061-3.878,1.97c-0.383,0.319-0.78,0.76-0.09,1.147c4.515,2.53,9.293,4.576,13.623,7.445
	c0.081,0.072,0.177,0.126,0.282,0.158c3.143,0.796,5.336,3.635,5.312,6.877c0.628,2.007,0.921,4.104,0.869,6.207
	c-0.007,2.528,0.357,5.043,1.081,7.464c0.243,1.687-0.182,3.403-1.185,4.781c-0.827,1.354-1.779,2.628-2.842,3.805
	c-3.99,5.031-8.028,10.019-12.163,14.935c-1.921,2.284-3.758,4.701-5.493,7.154c-2.58,3.647-5.883,6.651-8.715,10.077
	c-3.819,4.618-7.307,9.448-10.71,14.372c-1.907,2.546-3.623,5.229-5.134,8.028c-1.817,3.609-3.132,7.45-3.91,11.415
	c-0.085,0.591-0.004,1.195,0.232,1.744c1.163,3.167,2.49,6.27,3.977,9.298c1.353,2.648,2.074,5.611,3.283,8.342
	c1.576,3.119,2.989,6.319,4.234,9.584c2.659,6.905,5.76,13.631,9.285,20.137c1.533,2.739,1.724,6.03,0.517,8.928
	c-0.905,2.591-1.374,5.313-1.387,8.057c-0.106,1.188-0.23,1.931-1.704,1.821c-0.74-0.009-1.463,0.214-2.07,0.638
	c-1.875,1.353-4.438,1.219-6.162-0.322c-2.3-1.587-4.767-2.918-7.356-3.968c-3.09-1.595-5.644-4.062-7.346-7.094
	c-1.894-3.14-4.255-5.933-6.187-9.027c-1.934-3.098-3.943-6.145-5.706-9.357c-1.206-2.198-2.866-4.138-4.164-6.321
	c-0.602-1.496-1.354-2.926-2.246-4.27c-0.159-0.216-0.302-0.443-0.428-0.678c-1.163-2.303-3.972-3.228-6.275-2.065
	c-0.353,0.178-0.682,0.4-0.978,0.661c-2.03,1.295-4.062,2.603-6.185,3.731c-1.788,0.548-3.731,0-4.968-1.401
	c-2.268-3.485-6.258-5.452-10.403-5.131c-2.152,0.038-4.301,0.19-6.437,0.455c-0.378-0.025-0.757,0.042-1.104,0.196
	c-2.094,1.488-4.965,1.202-6.725-0.669c-1.142-1.038-2.807-1.261-4.183-0.561c-3.849,1.645-8.113,2.06-12.207,1.188
	c-1.973-0.19-3.96-0.199-5.935-0.027c-1.068,0.157-1.806,1.15-1.649,2.218c0.029,0.199,0.089,0.392,0.177,0.572
	c1.484,2.56,2.207,5.49,2.083,8.446c0.065,0.433-0.156,0.86-0.549,1.055c-1.821,1.32-3.567,2.74-5.229,4.253
	c-0.927,0.613-1.984,1-3.088,1.13c-3.242,0.293-6.423-0.494-9.666-0.486c-3.187,0.082-6.375-0.099-9.532-0.541
	c-3.635-0.593-7.319-0.908-10.989-1.26c-1.083-0.037-2.167,0.007-3.244,0.134c-1.779,0.264-3.497-0.76-4.112-2.45
	c-0.496-2.033-2.546-3.279-4.579-2.783c-0.72,0.176-1.374,0.559-1.878,1.103c-4.454,3.213-8.587,6.849-12.343,10.855
	c-1.249,1.487-2.088,3.274-2.432,5.185c0.1,1.37-0.931,2.562-2.301,2.662c-0.692,0.05-1.374-0.191-1.881-0.665
	c-2.322-1.244-5.182-0.852-7.083,0.971c-3.796,2.546-7.362,5.419-10.656,8.588c-1.094,0.591-1.502,1.958-0.911,3.052
	c0.098,0.182,0.221,0.349,0.364,0.497c0.78,1.196,1.02,2.665,0.661,4.046c-0.511,3.239-0.889,6.488-1.189,9.751
	c-0.214,1.605-0.734,3.153-1.532,4.561c-0.523,1.022-1.153,1.576-2.524,0.589c-1.708-0.984-3.481-1.852-5.306-2.597
	c-3.477-1.834-6.475-4.458-10.005-6.202c-1.67-1.162-3.466-2.133-5.353-2.893c-0.596-0.463-1.027-1.105-1.228-1.833
	c-3.569-4.323-7.026-8.744-10.703-12.972c-4.988-5.736-10.132-11.336-15.228-16.976c-1.293-1.431-3.181-2.177-5.103-2.016
	c-2.859,0.232-5.73,0.291-8.596,0.175c-0.694-0.148-1.383,0.271-1.57,0.956c-1.007,2.436-2.177,4.802-3.502,7.082
	c-0.284,0.728-1.104,1.088-1.832,0.804c-0.291-0.114-0.537-0.32-0.698-0.588c-2.589-3.183-5.373-6.202-8.335-9.04
	c-2.662-2.69-5.354-5.348-8.076-7.974c-0.546-0.606-0.876-1.375-0.94-2.188c-0.498-2.703-1.251-5.352-2.249-7.913
	c-1.465-2.812-3.543-5.258-6.08-7.16c-1.601-1.518-3.49-2.73-5.124-4.216c-0.803-0.854-2.059-1.107-3.13-0.63
	c-2.317,0.965-4.797,1.373-7.13,2.4c-2.013,0.802-4.204,1.052-6.346,0.725c-3.146-0.426-6.3-0.995-9.373-1.657
	c-3.18-0.642-6.323-1.458-9.415-2.443c-3.336-1.045-6.738-1.863-10.185-2.449c-4.06-0.768-8.021-1.979-12.06-2.871
	c-2.8-0.619-5.635-0.685-8.424-1.228c-4.342-1.002-8.626-2.241-12.832-3.71c-1.625-0.504-3.347-0.688-5.001-1.111
	c-4.333-1.405-7.772-4.736-9.316-9.021c-1.435-3.142-4.446-5.273-7.886-5.582c-2.385-0.354-4.755-0.805-7.138-1.17
	c-3.522-0.507-7.069-0.818-10.625-0.931c-0.815,0.041-1.625-0.16-2.326-0.579c-0.665-0.349-1.418-0.493-2.164-0.416
	c-1.687,0.119-3.323-0.606-4.369-1.935c-3.791-4.964-6.826-10.487-10.992-15.144c-1.978-1.893-4.084-3.648-6.303-5.253
	c-4.096-2.875-7.886-6.162-11.31-9.811c-2.166-2.74-3.673-5.942-4.403-9.357c-1.353-6.598-3.533-12.967-5.045-19.511
	c-1.053-4.562-2.899-8.883-3.834-13.481c-1.639-8.065-4.388-15.826-6.732-23.694C25.802,355.135,24.536,349.4,23.302,343.653z
	 M235.817,525.824c0.888-2.01,1.604-3.881,2.532-5.639c0.208-1.335,1.327-2.339,2.677-2.403c2.832,0.328,5.699,0.138,8.463-0.561
	c2.567-0.368,5.146,0.585,6.855,2.535c2.676,2.391,4.935,5.243,7.548,7.712c3.199,3.102,6.202,6.401,8.99,9.877
	c2.417,2.935,4.824,5.895,7.283,8.799c2.44,3.218,5.517,5.899,9.039,7.875c5.145,2.381,10.039,5.271,14.608,8.628
	c0.755,0.594,1.049,0.246,1.29-0.397c0.224-0.598,0.347-1.232,0.553-1.837c0.81-3.321,1.358-6.701,1.639-10.108
	c0.25-1.28-0.061-2.606-0.853-3.641c-1.324-1.87-1.396-2.42,0.221-4.117c1.751-1.837,3.613-3.57,5.445-5.329
	c2.195-2.108,5.116-3.176,7.413-5.148c2.143-2.064,5.462-2.283,7.858-0.517c0.792,0.496,1.03,0.136,1.298-0.508
	c0.622-1.492,1.232-2.991,1.917-4.454c0.537-1.752,1.567-3.313,2.967-4.495c1.629-0.91,3.123-2.044,4.436-3.37
	c2.84-3.091,6.236-5.62,10.01-7.455c0.342-0.254,0.81-0.253,1.15,0.003c1.957,1.124,3.64,2.668,4.927,4.522
	c0.646,1.017,1.835,1.553,3.025,1.364c1.768-0.174,3.549-0.156,5.313,0.052c2.569,0.53,5.16-0.343,7.749,0.136
	c1.749,0.353,3.536,0.478,5.317,0.373c4.414-0.099,8.829,0.099,13.216,0.595c2.19,0.19,4.368-0.484,6.069-1.877
	c0.982-0.587,1.301-1.859,0.714-2.841c-0.048-0.08-0.102-0.157-0.16-0.23c-0.928-1.696-1.729-3.459-2.396-5.273
	c-0.314-0.587-0.272-1.301,0.11-1.847c1.299-2.275,3.353-4.024,5.805-4.945c0.824-0.1,1.562-0.572,2.163,0.399
	c0.201,0.172,0.457,0.267,0.721,0.268c4.026,0.516,8.115,0.162,11.992-1.04c2.805-1.245,6.074-0.795,8.438,1.162
	c0.551,0.51,1.314,0.723,2.049,0.569c4.487-1.138,9.141-1.465,13.742-0.964c1.608-0.332,3.279,0.11,4.513,1.194
	c1.083,1.211,2.246,2.349,3.48,3.405c1.067,1.311,2.92,1.668,4.397,0.846c2.67-1.249,5.334-2.511,8.001-3.765
	c0.517-0.208,0.87-0.692,0.91-1.248c0.037-0.37,0.257-0.657,0.649-0.474c1.1,0.365,2.134,0.907,3.06,1.605
	c1.205,1.231,2.25,2.609,3.111,4.101c2.96,4.975,6.613,9.493,9.447,14.55c1.56,2.784,2.992,5.625,4.751,8.324
	c1.571,2.409,2.966,4.978,4.637,7.345c0.734,1.593,2.074,2.827,3.721,3.428c4.456,1.38,8.778,3.164,12.91,5.328
	c1.26,0.493,2.682-0.129,3.175-1.389c0.047-0.119,0.084-0.242,0.111-0.368c0.297-3.283,0.883-6.516,1.475-9.754
	c0.471-1.668,0.328-3.45-0.402-5.023c-3.132-5.943-5.977-12.03-8.804-18.127c-0.994-2.613-2.163-5.156-3.499-7.611
	c-1.492-2.649-2.736-5.43-3.715-8.308c-1.442-3.538-2.377-7.251-4.028-10.727c-1.23-2.172-1.608-4.723-1.062-7.159
	c0.887-2.999,1.972-5.935,3.248-8.79c2.036-4.247,4.512-8.268,7.386-11.999c5.464-7.757,11.49-15.054,17.667-22.231
	c2.805-3.228,5.38-6.649,7.705-10.238c3.788-6.296,8.301-12.127,13.446-17.373c0.295-0.16,0.451-0.495,0.383-0.824
	c-0.294-1.86-0.431-3.741-0.409-5.623c-0.851-4.243-2.443-8.304-3.079-12.598c-0.185-0.82-0.824-1.461-1.644-1.647
	c-2.7-1.044-5.466-1.894-8.086-3.172c-2.902-1.647-5.68-3.504-8.31-5.557c-0.748-0.511-0.622-1.078-0.017-1.882
	c1.389-1.534,3.114-2.726,5.04-3.482c1.087-0.566,1.973-0.919,1-2.312c-0.278-0.335-0.365-0.79-0.23-1.204
	c0.805-2.157,1.836-4.221,3.078-6.16c0.601-1.284,2.128-1.838,3.412-1.237c0.618,0.289,1.096,0.813,1.327,1.455
	c1.404,3.201,2.521,6.519,3.339,9.917c0.11,0.412-0.015,1.065,0.616,1.069c1.735-0.127,3.244-1.238,3.881-2.857
	c-0.041-2.463-0.789-4.863-2.156-6.913c-1.606-1.34-2.39-3.425-2.065-5.491c0.171-0.955,0.292-1.921,0.506-2.866
	c0.104-0.384,0.462-0.643,0.859-0.622c0.693-0.132,1.403-0.15,2.101-0.054c1.347,0.447,1.543-0.271,1.797-1.295
	c0.343-1.405,0.788-2.784,1.332-4.124c1.35-3.107,2.04-6.461,2.025-9.849c-0.078-4.001-0.709-7.956-0.736-11.954
	c0.218-4.926-0.279-9.858-1.476-14.642c-0.289-1.366-0.681-2.707-1.174-4.013c-0.485-1.016-0.275-2.227,0.523-3.021
	c0.666-0.779,1.403-1.495,2.202-2.137c4.593-3.246,9.488-6.041,14.617-8.349c3.301-1.362,6.068-3.764,7.881-6.84
	c1.632-3.159,3.536-6.173,5.375-9.222c2.918-4.283,6.187-8.316,9.772-12.058c2.876-3.364,6.374-6.089,9.536-9.161
	c0.474-0.461,0.565-0.634-0.027-1.208c-1.8-1.175-3.515-2.475-5.134-3.889c-2.018-2.615-4.607-4.733-7.57-6.192
	c-0.936-0.398-1.49-1.372-1.354-2.38c0.158-3.883-0.487-7.757-1.896-11.379c-0.205-0.663-0.806-1.124-1.5-1.149
	c-2.118-0.333-4.173,0.571-6.224,0.281c-0.918-0.338-1.936,0.132-2.274,1.05c-0.103,0.279-0.133,0.579-0.09,0.873
	c-0.316,3.151-0.456,6.314-0.887,9.459c-0.648,3.967-1.064,7.969-1.247,11.984c0.325,2.161-1.077,4.206-3.211,4.681
	c-3.073,0.823-5.51,3.164-6.455,6.202c-0.609,1.894-2.276,3.252-4.255,3.464c-2.523,0.507-4.956,1.385-7.222,2.604
	c-2.683,1.578-4.884,3.867-7.712,5.245c-4.029,1.963-7.592,4.7-11.447,6.952c-3.136,1.247-5.317,4.136-5.658,7.493
	c-0.035,1.009-0.089,2.017-0.094,3.026c0.368,2.068-0.643,4.137-2.501,5.119c-1.55,0.725-3.067,1.533-4.549,2.391
	c-4.321,2.501-8.628,5.027-12.921,7.578c-2.552,1.374-5.025,2.89-7.407,4.542c0.375,0.272,0.628,0.478,0.902,0.649
	c1.602,1.002,1.701,1.971,0.287,3.216c-0.872,0.807-1.786,1.567-2.738,2.278c-4.604,3.267-9.18,6.579-13.873,9.714
	c-4.287,2.864-8.634,5.646-12.7,8.811c-1.877,1.622-4.152,2.714-6.591,3.163c-1.699,0.252-3.375,0.659-5.06,1.005
	c-1.08,0.222-1.323-0.335-1.279-1.274c0.073-1.555,0.235-3.113,0.401-4.648c0.234-2.16-0.257-4.298,0.148-6.453
	c0.545-2.895,0.973-5.809,1.606-8.692c0.54-2.136-0.157-4.395-1.808-5.854c-1.801-1.367-3.366-3.02-4.633-4.894
	c-0.586-0.901-1.792-1.157-2.694-0.571c-0.143,0.093-0.274,0.205-0.388,0.332c-1.163,1.192-2.99,1.434-4.423,0.586
	c-1.76-0.771-1.994-1.126-1.219-2.923c0.874-2.026,1.754-4.056,2.782-6.005c0.512-0.692,0.366-1.668-0.326-2.18
	c-0.061-0.045-0.125-0.085-0.191-0.121c-2.856-1.985-4.967-4.867-5.998-8.19c-0.15-2.039-1.833-3.624-3.877-3.653
	c-2.025-0.969-4.417-0.752-6.234,0.565c-0.207,0.177-0.476,0.264-0.748,0.242c-0.677-0.092-1.299,0.382-1.391,1.059
	c-0.001,0.009-0.002,0.018-0.003,0.027c-1.094,3.158-2.819,6.061-5.07,8.532c-1.416,1.484-1.837,3.657-1.076,5.562
	c0.106,0.419,0.11,0.858,0.012,1.279c-1.002,4.083,0.035,8.398,2.782,11.58c2.031,2.001,2.29,5.188,0.61,7.491
	c-1.234,2.039-1.872,4.384-1.841,6.767c0.093,3.067-0.174,6.135-0.795,9.141c-0.115,1.49-1.182,2.733-2.637,3.072
	c-1.848,0.386-3.569,1.122-5.378,1.585c-0.893,0.412-1.952,0.023-2.364-0.87c-0.012-0.026-0.023-0.052-0.034-0.078
	c-1.228-2.554-2.564-5.057-3.847-7.586c-0.052-0.153-0.084-0.313-0.094-0.475c-0.623-3.273-1.589-6.471-2.883-9.541
	c-0.342-0.78-0.331-1.67,0.031-2.441c1.951-4.368,3.28-8.987,3.948-13.724c0.192-1.128-0.24-2.273-1.13-2.992
	c-1.828-1.46-3.07-3.529-3.5-5.828c-0.067-0.431-0.256-0.833-0.543-1.161c-1.194-1.128-1.402-2.952-0.494-4.32
	c1.294-2.652,2.83-5.185,4.126-7.836c0.339-0.694,0.316-1.473,1.342-1.547c0.851-0.192,1.743-0.031,2.473,0.446
	c0.278,0.162,0.574,0.29,0.883,0.381c2.069,0.922,2.158,0.898,3.267-0.962c1.636-2.353,3.606-4.455,5.85-6.238
	c0.573-0.5,1.253-0.861,1.988-1.054c3.508-0.903,7.095-1.462,10.712-1.669c1.656-0.239,3.285-0.635,4.865-1.185
	c0.392-0.038,0.711-0.333,0.779-0.722c0.005-0.569-0.578-0.371-0.885-0.477c-2.372-0.82-4.855-1.389-7.119-2.434
	c-2.932-0.835-5.918-1.469-8.936-1.896c-0.575-0.198-1.206-0.146-1.74,0.144c-2.597,1.414-4.719,3.562-6.102,6.176
	c-0.041,0.41-0.406,0.709-0.816,0.669c-0.045-0.004-0.089-0.013-0.132-0.025c-1.462-0.122-2.888-0.514-4.207-1.156
	c-3.811-2.472-7.892-4.528-11.865-6.752c-0.233-0.15-0.534-0.14-0.756,0.026c-2.366,1.569-4.837,3.001-7.074,4.736
	c-2.419,1.876-4.63,4.021-6.908,6.075c-0.434,0.418-1.048,0.592-1.637,0.466c-4.383-0.894-8.836-1.405-13.308-1.526
	c-1.097,0.011-1.213-0.349-0.902-1.238c0.057-0.421,0.141-0.837,0.251-1.247c2.146-4.977,4.542-9.843,7.178-14.579
	c0.769-0.572,1.294-1.412,1.47-2.354c-0.743-0.592-1.7-0.845-2.638-0.696c-2.388-0.751-4.814-1.483-7.237-2.001
	c-2.335-0.241-4.654-0.614-6.947-1.118c-2.913-0.706-5.879-1.166-8.869-1.378c-2.524-0.38-5.075-0.554-7.627-0.521
	c-3.127,0.012-6.26-0.378-9.379-0.264c-3.775,0.138-7.479-0.798-11.263-0.449c-1.983,0.18-3.98,0.158-5.959-0.066
	c-3.648-0.414-7.318-0.32-10.965-0.667c-3.755-0.357-7.44,0.837-11.247,0.352c-4.098-0.522-8.273-0.118-12.4-0.729
	c-1.924-0.249-3.872-0.235-5.792,0.042c-3.77,0.505-7.569,0.761-11.372,0.766c-3.848-0.015-7.729-0.314-11.59-0.417
	c-7.087-0.067-14.165-0.511-21.204-1.332c-5.065-0.679-10.143-1.153-15.219-1.689c-1.053,0.09-2.113-0.047-3.109-0.401
	c-1.633-0.81-3.41-1.286-5.229-1.401c-3.616-0.499-7.208-1.255-10.888-1.396c-4.342-0.537-8.647-1.333-12.894-2.384
	c-3.335-0.53-6.682-0.983-9.992-1.735c-3.765-0.856-7.647-1.185-11.43-1.972c-5.153-1.073-10.21-2.519-15.454-3.258
	c-4.292-0.631-8.541-1.526-12.722-2.679c-4.307-1.16-8.834-1.481-13.241-2.296c-2.267-0.163-4.508-0.581-6.681-1.245
	c-4.225-1.623-8.665-2.622-13.178-2.966c-4.698-0.557-9.419-0.915-14.122-1.435c-2.388-0.264-2.734-0.14-3.373,2.239
	c-0.657,2.45-1.498,4.835-2.349,7.221c-0.31,0.87-1.021,1.952-1.683,1.692c-2.444-0.963-5.075-0.869-7.532-1.638
	c-2.247-0.759-4.417-1.729-6.481-2.898c-0.436-0.307-0.988-0.401-1.501-0.254c-0.561,0.257-0.182,0.887-0.17,1.34
	c0.027,1.028,0.095,2.058,0.224,3.078c0.933,4.358,1.563,8.775,1.886,13.22c-0.063,1.336,0.056,2.674,0.354,3.978
	c0.357,1.859-0.042,3.783-1.109,5.346c-1.393,2.603-3.015,5.083-4.469,7.655c-1.079,1.909-2.042,3.884-3.062,5.826
	c-1.608,2.621-3.02,5.356-4.225,8.185c-2.242,7.212-5.174,14.192-8.753,20.842c-0.386,0.655-0.553,1.415-0.477,2.172
	c0.294,3.29,0.636,6.575,0.954,9.863c0.109,1.131,0.116,2.324,1.748,2.228c-0.376,0.812-0.754,1.514-1.034,2.253
	c-1.678,5.035-3.71,9.944-6.081,14.693c-1.474,2.331-1.931,5.164-1.263,7.84c0.36,1.301,0.798,2.58,1.163,3.879
	c1.119,3.353,2.019,6.776,2.695,10.245c0.214,2.207,0.552,4.401,1.012,6.57c1.861,7.042,4.307,13.909,6.06,20.998
	c1.468,5.935,3.251,11.805,4.841,17.718c1.335,4.967,2.848,9.88,4.023,14.9c0.842,3.913,2.871,7.472,5.81,10.19
	c2.648,2.383,5.517,4.52,8.185,6.882c2.387,2.114,4.95,3.991,7.507,5.875c2.487,2.303,4.662,4.92,6.472,7.786
	c1.275,1.466,2.463,3.007,3.556,4.614c0.829,2.452,2.963,4.232,5.524,4.61c2.38,0.113,4.727,1.088,7.1,1.137
	c5.826,0.119,11.46,1.717,17.255,1.989c0.431,0.046,0.83,0.246,1.125,0.563c0.838,0.759,1.749,1.434,2.719,2.014
	c1.338,0.785,2.487,1.855,3.365,3.134c1.709,3.676,4.696,6.604,8.404,8.241c4.04,1.74,8.402,2.385,12.435,4.125
	c4.569,1.497,9.291,2.481,14.077,2.935c6.584,1.242,13.147,2.558,19.609,4.277c5.911,1.737,11.928,3.094,18.013,4.063
	c3.098,0.441,6.257,0.123,9.205-0.927c1.985-0.819,4.021-1.507,6.096-2.06c0.862-0.484,1.92-0.458,2.758,0.069
	c1.37,1.462,2.928,2.734,4.634,3.785c1.903,1.732,3.942,3.308,6.098,4.712c1.113,0.369,1.918,1.342,2.07,2.505
	c0.085,1.617,0.286,3.226,0.602,4.814c0.231,2.024,0.796,3.995,1.672,5.834c1.506,2.096,3.218,4.036,5.112,5.79
	c1.548,1.637,3.169,3.204,4.767,4.793C231.341,521.401,233.494,523.524,235.817,525.824L235.817,525.824z M394.712,507.742
	c0.207,1.47,0.798,2.86,1.714,4.03C396.311,510.277,395.709,508.862,394.712,507.742z"/>
<g>
	<path fill="#FFFFFF" d="M164.344,283.702v48.193c0,7.748-2.515,13.672-7.544,17.773s-11.597,6.152-19.702,6.152
		c-7.813,0-14.152-2.059-19.019-6.177c-4.867-4.118-7.3-10.034-7.3-17.749v-48.193h9.619v48.157c0,5.367,1.53,9.441,4.59,12.222
		c3.06,2.782,7.096,4.172,12.109,4.172c5.273,0,9.529-1.39,12.769-4.172c3.239-2.781,4.858-6.855,4.858-12.222v-48.157H164.344z"/>
	<path fill="#FFFFFF" d="M218.787,336.893c0-3.236-1.221-5.946-3.662-8.131c-2.441-2.184-6.771-4.021-12.988-5.51
		c-7.52-1.794-13.387-4.438-17.603-7.929c-4.216-3.491-6.323-7.88-6.323-13.167c0-5.546,2.271-10.18,6.812-13.9
		s10.425-5.58,17.651-5.58c7.78,0,13.973,2.132,18.579,6.396c4.606,4.265,6.828,9.212,6.665,14.844l-0.098,0.293h-9.18
		c0-4.167-1.375-7.536-4.126-10.107c-2.751-2.571-6.698-3.857-11.841-3.857c-4.785,0-8.456,1.083-11.011,3.247
		c-2.556,2.165-3.833,4.989-3.833,8.472c0,3.093,1.383,5.672,4.15,7.739c2.767,2.067,7.259,3.882,13.477,5.444
		c7.487,1.855,13.184,4.59,17.09,8.203s5.859,8.089,5.859,13.428c0,5.729-2.344,10.335-7.031,13.818
		c-4.688,3.483-10.808,5.225-18.359,5.225c-7.097,0-13.371-1.929-18.823-5.786c-5.453-3.857-8.098-9.009-7.935-15.454l0.098-0.293
		h9.18c0,4.558,1.676,8.024,5.029,10.4c3.353,2.376,7.503,3.564,12.451,3.564c4.85,0,8.691-1.02,11.523-3.058
		C217.371,343.156,218.787,340.389,218.787,336.893z"/>
	<path fill="#FFFFFF" d="M280.945,336.485H251.16l-6.738,18.311h-9.814l27.49-71.094h8.252l27.051,71.094h-9.814L280.945,336.485z
		 M254.139,328.428h23.926l-11.719-32.373h-0.293L254.139,328.428z"/>
	<path fill="#FFFFFF" d="M219.004,391.702h9.619v51.416c0,6.348-2.01,11.386-6.03,15.112c-4.021,3.728-9.237,5.591-15.649,5.591
		c-6.836,0-12.272-1.741-16.309-5.225c-4.037-3.482-5.974-8.528-5.811-15.137l0.098-0.293h9.229c0,4.395,1.115,7.675,3.345,9.839
		c2.229,2.165,5.379,3.247,9.448,3.247c3.548,0,6.445-1.194,8.691-3.586c2.246-2.391,3.369-5.587,3.369-9.588V391.702z"/>
	<path fill="#FFFFFF" d="M299.375,433.596c0,8.691-2.694,15.902-8.081,21.631c-5.388,5.729-12.378,8.594-20.972,8.594
		c-8.301,0-15.048-2.864-20.239-8.594c-5.192-5.729-7.788-12.939-7.788-21.631v-12.646c0-8.658,2.596-15.869,7.788-21.631
		c5.191-5.761,11.938-8.642,20.239-8.642c8.594,0,15.584,2.873,20.972,8.618c5.387,5.746,8.081,12.964,8.081,21.655V433.596z
		 M289.756,420.852c0-6.51-1.758-11.849-5.273-16.016c-3.516-4.166-8.236-6.25-14.16-6.25c-5.6,0-10.067,2.084-13.403,6.25
		c-3.337,4.167-5.005,9.506-5.005,16.016v12.744c0,6.576,1.668,11.947,5.005,16.113c3.336,4.167,7.804,6.25,13.403,6.25
		c5.957,0,10.685-2.075,14.185-6.226c3.499-4.15,5.249-9.529,5.249-16.138V420.852z"/>
	<path fill="#FFFFFF" d="M313.73,462.795v-71.093h23.193c7.422,0,13.232,1.604,17.432,4.809c4.199,3.207,6.299,8.017,6.299,14.429
		c0,3.158-1.01,5.981-3.027,8.472c-2.019,2.49-4.672,4.338-7.959,5.542c4.297,0.912,7.674,3.012,10.132,6.299
		c2.457,3.288,3.687,7.113,3.687,11.475c0,6.511-2.108,11.483-6.323,14.917c-4.216,3.435-9.937,5.151-17.163,5.151H313.73z
		 M323.35,421.926h15.576c3.58,0,6.494-0.984,8.74-2.954c2.246-1.969,3.369-4.712,3.369-8.228c0-3.841-1.213-6.714-3.638-8.618
		c-2.426-1.904-5.917-2.856-10.474-2.856H323.35V421.926z M323.35,429.494v25.732H340c4.361,0,7.764-1.078,10.205-3.234
		s3.662-5.213,3.662-9.169c0-4.15-1.018-7.41-3.052-9.777c-2.035-2.367-5.168-3.552-9.399-3.552H323.35z"/>
	<path fill="#FFFFFF" d="M416.367,444.893c0-3.235-1.221-5.945-3.662-8.131c-2.441-2.184-6.771-4.021-12.988-5.51
		c-7.52-1.794-13.388-4.438-17.603-7.929c-4.216-3.491-6.323-7.881-6.323-13.167c0-5.547,2.271-10.18,6.812-13.9
		s10.425-5.58,17.651-5.58c7.779,0,13.973,2.132,18.579,6.396c4.605,4.265,6.827,9.213,6.665,14.844l-0.098,0.293h-9.18
		c0-4.166-1.376-7.535-4.126-10.107c-2.751-2.571-6.698-3.857-11.841-3.857c-4.785,0-8.456,1.083-11.011,3.247
		c-2.556,2.165-3.833,4.989-3.833,8.472c0,3.093,1.383,5.673,4.15,7.739c2.767,2.067,7.259,3.882,13.477,5.444
		c7.486,1.855,13.184,4.59,17.09,8.203s5.859,8.09,5.859,13.428c0,5.729-2.344,10.336-7.031,13.818
		c-4.688,3.483-10.808,5.225-18.359,5.225c-7.097,0-13.371-1.929-18.823-5.786c-5.453-3.857-8.098-9.009-7.935-15.454l0.098-0.293
		h9.18c0,4.558,1.676,8.024,5.029,10.4c3.353,2.377,7.503,3.564,12.451,3.564c4.85,0,8.691-1.02,11.523-3.058
		C414.951,451.155,416.367,448.389,416.367,444.893z"/>
</g>
</svg>
