<svg xmlns="http://www.w3.org/2000/svg" viewBox="0 0 100 100" x="0px" y="0px"><path fill="#FFFFFF" stroke="white" stroke-width="1" d="M3.80751,41.44654A2.53811,2.53811,0,0,1,3.86425,40.37,8.18812,8.18812,0,0,1,4.29,39.37859c0.22062-.45965.37765-0.94581,0.61206-1.4a0.92389,0.92389,0,0,0-.03518-0.64616,13.78787,13.78787,0,0,1-.2276-2.00087,0.92257,0.92257,0,0,1,.10594-0.51333A6.11671,6.11671,0,0,1,5.11582,34.096a4.16938,4.16938,0,0,0,.7414-1.67675,3.57092,3.57092,0,0,1,.41638-1.07123q0.6874-1.26329,1.37651-2.52566a1.06361,1.06361,0,0,1,.14836-0.21866,1.83664,1.83664,0,0,0,.39274-1.6704C8.11366,26.442,8.1289,25.93649,8.0591,25.44349c-0.08706-.61473.02818-1.23765-0.10024-1.84694a0.2304,0.2304,0,0,1,.27464-0.32338,2.43655,2.43655,0,0,1,.98928.2281,6.04914,6.04914,0,0,0,1.45128.54549c0.155,0.03349.16981-.05414,0.19676-0.13673q0.17616-.5398.33679-1.08464a0.58533,0.58533,0,0,1,.81505-0.53814c0.48131,0.05745.96866,0.06333,1.45049,0.11739,0.98128,0.11007,1.9462.31172,2.91208,0.51689a28.656,28.656,0,0,0,3.657.67946,6.77756,6.77756,0,0,1,1.41621.27938c0.75973,0.23078,1.54973.29963,2.31516,0.49131,0.50349,0.12608,1.01985.18106,1.52846,0.27806,0.98028,0.18694,1.97243.3012,2.9505,0.50531,0.54916,0.11459,1.11494.147,1.67016,0.23565,0.65,0.10377,1.28932.26259,1.93268,0.40044,0.51315,0.10993,1.01455.26281,1.52807,0.36779a9.89007,9.89007,0,0,0,1.13339.08584c0.68265,0.05989,1.36481.12961,2.04865,0.1701,0.79942,0.04731,1.59329.17072,2.39815,0.15045,0.4481-.01129.89264,0.082,1.34321,0.09169,0.44718,0.00958.892-.00417,1.33781-0.02451a23.3977,23.3977,0,0,1,2.57244-.04372c0.83738,0.05364,1.67922.12153,2.517,0.10524,0.98649-.01921,1.97261-0.02548,2.95793-0.00251,0.88741,0.02068,1.77441.076,2.661,0.13524,0.9253,0.06188,1.85338.081,2.77989,0.13681,0.63028,0.03793,1.22986.20788,1.84639,0.29819a10.62248,10.62248,0,0,1,1.62374.34705,1.697,1.697,0,0,0,.48963.05884,0.86848,0.86848,0,0,1,.4263.22215c0.10492,0.053.0463,0.16316,0.01325,0.23454-0.31739.68554-.72611,1.32467-1.01488,2.02639-0.09373.22782-.17481,0.46141-0.27786,0.68507-0.0629.13654,0.00592,0.15746,0.1105,0.1529a10.028,10.028,0,0,1,1.27135.21588,0.54548,0.54548,0,0,0,.4373-0.1005c0.4752-.37961.96957-0.73553,1.43955-1.12128a5.8428,5.8428,0,0,1,.69222-0.60781c0.21441-.12726.46127-0.08318,0.67311-0.20339a0.32685,0.32685,0,0,1,.317.09368,6.69158,6.69158,0,0,1,.90173.72718,2.89824,2.89824,0,0,0,.6407.4644,0.31939,0.31939,0,0,0,.44816-0.06194c0.41923-.46655,1.04858-0.63532,1.501-1.05744a0.27332,0.27332,0,0,1,.3465-0.01325,6.44462,6.44462,0,0,0,1.95934.67625c0.26211,0.06694.50813,0.18323,0.766,0.26563a0.48989,0.48989,0,0,1,.21106.55334c-0.00092.18079-.17247,0.19454-0.31926,0.2043-0.88022.05855-1.74185,0.24571-2.61034,0.38441a0.75884,0.75884,0,0,0-.38123.22546,7.43821,7.43821,0,0,0-.91832,1.12554,0.41858,0.41858,0,0,1-.66347.08632c-0.35279-.33769-0.50455-0.1588-0.64377.11211-0.14873.2894-.29711,0.579-0.4507,0.86587a0.66289,0.66289,0,0,0-.01133.6337,6.05758,6.05758,0,0,0,.329.775,0.76371,0.76371,0,0,0,.25955.2942,0.64046,0.64046,0,0,1,.30665.74511,5.94414,5.94414,0,0,1-.38735,1.52007,1.95472,1.95472,0,0,0-.05455,1.3957c0.18177,0.57571.31714,1.16623,0.54,1.72966,0.00966,0.02443.0128,0.05146,0.02259,0.07583a0.64054,0.64054,0,0,0,.95683.45015,0.10119,0.10119,0,0,1,.02411-0.01072,0.61937,0.61937,0,0,0,.60054-0.75084,3.149,3.149,0,0,0-.01482-1.1,1.1758,1.1758,0,0,1,.12773-0.63652c0.0188-.05779.05278-0.11053,0.07287-0.168a1.04456,1.04456,0,0,0,.23712-0.94709,2.71115,2.71115,0,0,0-.5607-0.8573,0.65092,0.65092,0,0,1-.24643-0.53226,4.8336,4.8336,0,0,0-.0882-1.36712,0.67157,0.67157,0,0,1,.25929-0.675,2.61779,2.61779,0,0,0,.7523-1.18594,1.1052,1.1052,0,0,1,1.173-.92375,7.81727,7.81727,0,0,1,1.43714.14364,0.29632,0.29632,0,0,1,.33523.328,1.421,1.421,0,0,0,.62016,1.23968,2.35591,2.35591,0,0,1,.39594.48776,0.14425,0.14425,0,0,1,.017.17146,5.66355,5.66355,0,0,0-.51512,1.25079c-0.02506.09934-.06033,0.18358,0.07159,0.23771a0.18788,0.18788,0,0,0,.28525-0.08836,1.82358,1.82358,0,0,1,.1158-0.20823,0.18776,0.18776,0,0,1,.31664-0.07111,4.29109,4.29109,0,0,1,.73682.45214C72.454,36.612,72.70045,37.0842,73.04,37.48669a0.19323,0.19323,0,0,1,.01916.12634c-0.04165.5029-.09778,1.00392-0.17692,1.50274A7.06942,7.06942,0,0,0,72.77,40.34685c0.00338,0.19194-.13632.33386-0.1284,0.53007,0.00626,0.15495.016,0.19692,0.18991,0.20807a2.43178,2.43178,0,0,0,1.70929-.63241A18.276,18.276,0,0,1,76.27538,39.256c0.86259-.53634,1.65691-1.17043,2.49781-1.7377,0.0932-.06286.10456-0.1217,0.00712-0.19888a0.66818,0.66818,0,0,1-.19882-0.20967c-0.15508-.29781-0.14011-0.30925.13374-0.49085,0.97654-.6476,2.06407-1.09965,3.04559-1.73414,0.40091-.25917.82812-0.46537,1.23375-0.71219a0.35425,0.35425,0,0,0,.19312-0.29565,5.43943,5.43943,0,0,0,.0818-1.31588,0.26453,0.26453,0,0,1,.1382-0.26532,22.0326,22.0326,0,0,1,2.53573-1.61473c0.48854-.26836.9114-0.629,1.37057-0.93793a3.6042,3.6042,0,0,1,1.44053-.56438,0.77959,0.77959,0,0,0,.55209-0.58627,1.69118,1.69118,0,0,1,1.198-1.01532,0.30914,0.30914,0,0,0,.22914-0.31288c0.0776-.61921.162-1.23772,0.22916-1.85808,0.07742-.71477.13561-1.43159,0.20994-2.14672,0.02833-.27257.11891-0.314,0.40316-0.31a4.90946,4.90946,0,0,0,1.07486-.03577c0.50333-.102.84231,0.01859,0.8292,0.632a1.25351,1.25351,0,0,0,.08653.41132,2.64578,2.64578,0,0,1,.04179.91282,0.24263,0.24263,0,0,0,.086.23481c0.45467,0.30109.80512,0.72243,1.22913,1.06066,0.27792,0.22173.59347,0.37533,0.87855,0.58122,0.58251,0.42073.51838,0.58444,0.06565,0.99007-0.41564.37241-.77478,0.7937-1.17668,1.17378-0.41918.39646-.75044,0.8676-1.15608,1.27281a1.97682,1.97682,0,0,0-.41659.64122c-0.30667.72921-.91745,1.26013-1.27534,1.93729A3.09109,3.09109,0,0,1,90.47616,33.89a17.43067,17.43067,0,0,0-2.46349,1.51157,0.47,0.47,0,0,0-.14438.49923c0.08966,0.47277.18291,0.94521,0.25695,1.42052a17.48608,17.48608,0,0,1,.17536,2.44246c0.00624,0.42963.04281,0.8617,0.08049,1.28513a1.888,1.888,0,0,1-.11095.67248c-0.14933.60513-.43251,1.16727-0.57917,1.77749a0.64663,0.64663,0,0,1-.45845.5899c-0.131.02751-.08405,0.40468,0.06295,0.545a1.22347,1.22347,0,0,1,.28089,1.58282,0.25113,0.25113,0,0,1-.1055.116,5.34716,5.34716,0,0,0-.86917.5542c-0.10847.07078-.13089,0.12812-0.21334-0.07928-0.23459-.59011-0.25234-1.2343-0.50841-1.812-0.09906-.22346-0.17729-0.2246-0.37244-0.07943a0.83963,0.83963,0,0,0-.31258.962c0.09329,0.39541.0777,0.40282-.32253,0.526a1.78978,1.78978,0,0,0-.63358.32192c-0.06254.05219-.12749,0.12418-0.01464,0.1874,0.73767,0.41336,1.51854.74767,2.22594,1.21655a0.12466,0.12466,0,0,0,.046.02583,1.15032,1.15032,0,0,1,.868,1.12361,3.13753,3.13753,0,0,1,.142,1.01417,4.21759,4.21759,0,0,0,.17669,1.21969,1.06921,1.06921,0,0,1-.19369.78129,4.182,4.182,0,0,1-.46445.62177c-0.652.822-1.31181,1.63713-1.98739,2.44042-0.31391.37322-.614,0.76806-0.8976,1.169-0.42157.59593-.96123,1.08677-1.4241,1.64651-0.62405.75465-1.19394,1.54374-1.75,2.34837a10.55652,10.55652,0,0,0-.8389,1.31169,7.25761,7.25761,0,0,0-.63891,1.86521,0.53031,0.53031,0,0,0,.03788.28491,15.80905,15.80905,0,0,0,.64988,1.51935c0.22111,0.43263.33882,0.91684,0.53645,1.36308a16.52369,16.52369,0,0,1,.69189,1.56607A28.10782,28.10782,0,0,0,82.921,71.72132a1.67129,1.67129,0,0,1,.08447,1.45877,4.05536,4.05536,0,0,0-.2267,1.31659c-0.01725.19415-.03754,0.31547-0.2785,0.29751a0.57819,0.57819,0,0,0-.33816.10426,0.80468,0.80468,0,0,1-1.00693-.05254,6.2559,6.2559,0,0,0-1.202-.64844,2.90484,2.90484,0,0,1-1.20033-1.15921c-0.30945-.51307-0.69531-0.96945-1.011-1.47507-0.31608-.50622-0.64426-1.00411-0.93233-1.529-0.19709-.35917-0.46833-0.67609-0.68032-1.03279a3.87625,3.87625,0,0,0-.367-0.69765,0.92469,0.92469,0,0,1-.06995-0.11086,0.76328,0.76328,0,0,0-1.18521-.22943c-0.33174.21158-.66366,0.42531-1.01061,0.60968a0.7785,0.7785,0,0,1-.81183-0.229,1.85688,1.85688,0,0,0-1.69981-.83841,9.96535,9.96535,0,0,0-1.05177.07441,0.38229,0.38229,0,0,0-.18039.03206,0.84054,0.84054,0,0,1-1.09894-.10937,0.60672,0.60672,0,0,0-.68343-0.09159,3.317,3.317,0,0,1-1.99459.1941,5.32613,5.32613,0,0,0-.96973-0.00444,0.31932,0.31932,0,0,0-.24057.45587,2.53965,2.53965,0,0,1,.34033,1.38012,0.16505,0.16505,0,0,1-.08964.17237,9.90035,9.90035,0,0,0-.85447.695,1.16224,1.16224,0,0,1-.50457.1847c-0.52971.04783-1.04949-.08066-1.57943-0.07936A9.48626,9.48626,0,0,1,60.52,70.32129c-0.594-.09691-1.19585-0.14831-1.79561-0.2059a3.50046,3.50046,0,0,0-.53.0219,0.61842,0.61842,0,0,1-.67186-0.4003,0.61911,0.61911,0,0,0-1.0551-.27458,13.96453,13.96453,0,0,0-2.01687,1.77375,1.8191,1.8191,0,0,0-.39744.84729,0.40653,0.40653,0,0,1-.68334.32618,0.99412,0.99412,0,0,0-1.15742.15871,12.77034,12.77034,0,0,0-1.7412,1.40333,0.368,0.368,0,0,0-.08934.57989,0.82844,0.82844,0,0,1,.10793.66112c-0.08352.52926-.14523,1.0602-0.19431,1.59325a2.06586,2.06586,0,0,1-.25036.74532c-0.08546.167-.18842,0.25744-0.41243,0.09626a7.15109,7.15109,0,0,0-.867-0.42429c-0.56818-.29963-1.05794-0.72847-1.63473-1.01347a4.42939,4.42939,0,0,0-.87464-0.4727,0.57218,0.57218,0,0,1-.20063-0.29943c-0.58318-.70643-1.148-1.42868-1.7489-2.11964-0.815-.93718-1.65555-1.85221-2.48822-2.77391a1.01035,1.01035,0,0,0-.83385-0.32938,11.57,11.57,0,0,1-1.40459.02852,0.21867,0.21867,0,0,0-.2566.15622,9.62907,9.62907,0,0,1-.57217,1.15716,0.23113,0.23113,0,0,1-.41333.03524,16.2349,16.2349,0,0,0-1.36194-1.47713q-0.6525-.65935-1.31962-1.303a0.60392,0.60392,0,0,1-.15354-0.35758,7.11568,7.11568,0,0,0-.36744-1.293,3.46114,3.46114,0,0,0-.99341-1.16994c-0.26159-.248-0.57019-0.446-0.83724-0.68886a0.45042,0.45042,0,0,0-.51138-0.103c-0.37867.15766-.78379,0.2243-1.16511,0.39218a1.99014,1.99014,0,0,1-1.037.11845c-0.51406-.0696-1.02946-0.16254-1.53159-0.27075a14.58451,14.58451,0,0,1-1.53839-.39913,12.69573,12.69573,0,0,0-1.66415-.40024c-0.66335-.12546-1.31064-0.32329-1.97057-0.46918-0.45756-.10116-0.92078-0.112-1.37653-0.2006a19.96257,19.96257,0,0,1-2.0968-.60628c-0.26554-.08242-0.54688-0.1124-0.81714-0.18147a2.40735,2.40735,0,0,1-1.5222-1.474,1.57135,1.57135,0,0,0-1.28859-.91215c-0.38967-.05785-0.777-0.13161-1.16638-0.19114a15.67939,15.67939,0,0,0-1.73615-.15214,0.67455,0.67455,0,0,1-.38-0.09462,0.62332,0.62332,0,0,0-.35363-0.06794,0.83378,0.83378,0,0,1-.71387-0.31621c-0.61952-.81117-1.11532-1.71355-1.796-2.47453a9.77329,9.77329,0,0,0-1.02988-.8583,11.94852,11.94852,0,0,1-1.84806-1.60307,3.72,3.72,0,0,1-.71944-1.529c-0.22108-1.07814-.57735-2.1188-0.82431-3.18815-0.17213-.74535-0.47375-1.45155-0.62639-2.20281-0.26774-1.31774-.717-2.586-1.09995-3.87159C4.21609,43.3227,4.00913,42.3857,3.80751,41.44654Zm34.7247,29.76659c0.14509-.32842.26205-0.6341,0.41376-0.92145a0.46485,0.46485,0,0,1,.43744-0.39261,3.83908,3.83908,0,0,0,1.38279-.09159,1.25347,1.25347,0,0,1,1.12018.41414c0.43731,0.39061.80634,0.85671,1.23326,1.26018a17.52056,17.52056,0,0,1,1.469,1.61394c0.39488,0.4795.78821,0.96326,1.19,1.43767a4.80438,4.80438,0,0,0,1.477,1.28679A13.86258,13.86258,0,0,1,49.64258,77.23c0.1234,0.09707.17147,0.04021,0.21078-.06483,0.03657-.09766.05664-0.20136,0.09039-0.30021a10.6861,10.6861,0,0,0,.26784-1.65158,0.74464,0.74464,0,0,0-.13944-0.595c-0.21632-.30553-0.22817-0.39541.03615-0.6727,0.28616-.3002.59038-0.58332,0.88967-0.87078,0.35872-.34452.836-0.519,1.21131-0.84113a0.99753,0.99753,0,0,1,1.28391-.08452c0.12938,0.08106.16823,0.02223,0.21205-.08293,0.10161-.2438.20137-0.48865,0.31331-0.72775a1.55978,1.55978,0,0,1,.48478-0.73456,3.25628,3.25628,0,0,0,.72489-0.55066,5.47087,5.47087,0,0,1,1.63569-1.21821,0.15679,0.15679,0,0,1,.18784.00055,2.48993,2.48993,0,0,1,.80506.73887,0.494,0.494,0,0,0,.49423.22291,4.03735,4.03735,0,0,1,.86813.00845c0.41985,0.08657.84312-.056,1.26616,0.02224a3.383,3.383,0,0,0,.86886.06091,16.03521,16.03521,0,0,1,2.15947.09716,1.37685,1.37685,0,0,0,.99162-0.30678,0.33844,0.33844,0,0,0,.09051-0.50184,6.39759,6.39759,0,0,1-.39157-0.86164,0.289,0.289,0,0,1,.01794-0.30183,1.83539,1.83539,0,0,1,.94858-0.80807c0.13458-.0163.25515-0.09349,0.3534,0.06521a0.18174,0.18174,0,0,0,.11784.04378,4.62965,4.62965,0,0,0,1.95948-.16989,1.32139,1.32139,0,0,1,1.37871.18989,0.37851,0.37851,0,0,0,.33486.09293,6.33956,6.33956,0,0,1,2.2455-.15748,0.85541,0.85541,0,0,1,.73742.19511,5.95083,5.95083,0,0,0,.56869.55641,0.56942,0.56942,0,0,0,.71852.13826c0.43627-.20411.87152-0.41037,1.30741-0.61527a0.238,0.238,0,0,0,.14862-0.20389c0.00609-.0605.04206-0.10739,0.106-0.0775a1.73927,1.73927,0,0,1,.49993.2623,3.3631,3.3631,0,0,1,.50838.67008c0.48363,0.81284,1.08061,1.55119,1.54362,2.37741,0.25495,0.45493.48891,0.91911,0.77635,1.36013,0.25662,0.39369.48457,0.81336,0.7576,1.20015a1.07535,1.07535,0,0,0,.60808.56016,12.54853,12.54853,0,0,1,2.10954.87058,0.40047,0.40047,0,0,0,.53709-0.28706c0.04849-.53651.14431-1.06466,0.241-1.59381a1.18456,1.18456,0,0,0-.06565-0.8207c-0.51183-.971-0.97664-1.96576-1.43857-2.962a10.17138,10.17138,0,0,0-.57181-1.24365,8.05362,8.05362,0,0,1-.60707-1.3575C79.81,65.72169,79.6572,65.115,79.38743,64.54692a1.64385,1.64385,0,0,1-.17354-1.16974,11.57146,11.57146,0,0,1,.53069-1.43628,11.00927,11.00927,0,0,1,1.20689-1.96056c0.89282-1.26747,1.87737-2.4598,2.8867-3.63251a14.907,14.907,0,0,0,1.259-1.6729,15.37037,15.37037,0,0,1,2.197-2.83876,0.12441,0.12441,0,0,0,.06254-0.13468,5.48475,5.48475,0,0,1-.06687-0.91882c-0.139-.69331-0.39911-1.35681-0.50313-2.05858a0.35612,0.35612,0,0,0-.26866-0.26906c-0.44116-.17062-0.89317-0.3094-1.32131-0.51829a11.1375,11.1375,0,0,1-1.35784-.90808c-0.12217-.08346-0.1016-0.1762-0.00282-0.30745a2.19022,2.19022,0,0,1,.82356-0.569c0.17756-.09242.32232-0.1501,0.16342-0.3777a0.20747,0.20747,0,0,1-.03762-0.19675,5.30092,5.30092,0,0,1,.50293-1.00647,0.41934,0.41934,0,0,1,.77434.03556,9.67472,9.67472,0,0,1,.54563,1.62046c0.01805,0.0673-.00239.17406,0.10071,0.17469a0.73985,0.73985,0,0,0,.63423-0.46688,2.09884,2.09884,0,0,0-.35227-1.12959,0.97132,0.97132,0,0,1-.33735-0.89722c0.02795-.15609.04778-0.31392,0.08271-0.46838a0.13784,0.13784,0,0,1,.14044-0.10158,1.06058,1.06058,0,0,1,.34336-0.00882c0.22008,0.07306.25215-.04433,0.29356-0.21153a4.8403,4.8403,0,0,1,.21758-0.67391,3.99587,3.99587,0,0,0,.3309-1.60929c-0.01268-.65379-0.11586-1.29994-0.12029-1.95324a8.337,8.337,0,0,0-.24124-2.39242,4.49207,4.49207,0,0,0-.19184-0.65577,0.43279,0.43279,0,0,1,.0855-0.4936,2.69157,2.69157,0,0,1,.35985-0.34925,14.31621,14.31621,0,0,1,2.38845-1.36414,2.68284,2.68284,0,0,0,1.2878-1.11772c0.26673-.51611.57771-1.00868,0.87825-1.50681a15.29784,15.29784,0,0,1,1.59677-1.97028c0.47-.5497,1.04157-0.99494,1.5581-1.49693,0.07744-.07527.09241-0.10356-0.00448-0.1974a7.53885,7.53885,0,0,1-.83886-0.63544,3.53365,3.53365,0,0,0-1.237-1.01178,0.36918,0.36918,0,0,1-.22132-0.38885,4.61135,4.61135,0,0,0-.30986-1.85938A0.26665,0.26665,0,0,0,92.807,23.254c-0.34612-.05439-0.68189.09324-1.01692,0.0459a0.28937,0.28937,0,0,0-.38622.31412c-0.05161.51484-.07446,1.03178-0.145,1.54565a16.90412,16.90412,0,0,0-.20374,1.95823,0.67991,0.67991,0,0,1-.52466.76486,1.51484,1.51484,0,0,0-1.05466,1.01347,0.82211,0.82211,0,0,1-.69525.566,4.25893,4.25893,0,0,0-1.18.42554c-0.43842.25785-.798,0.63193-1.26008,0.857C85.68222,31.06557,85.1,31.51271,84.47,31.88074a1.47859,1.47859,0,0,0-.92455,1.22435c-0.00574.16479-.01458,0.3296-0.01533,0.49444a0.78967,0.78967,0,0,1-.40862.83637c-0.25332.11851-.50122,0.25051-0.74336,0.39063q-1.05918.613-2.11129,1.23829a12.59719,12.59719,0,0,0-1.21027.74221c0.06134,0.04443.10258,0.07811,0.14737,0.10612,0.26175,0.16372.27795,0.322,0.04687,0.5255a5.57769,5.57769,0,0,1-.4473.3723c-0.75225.53388-1.5,1.075-2.26678,1.58733-0.70042.468-1.41071,0.92257-2.0752,1.43977a2.27955,2.27955,0,0,1-1.077.51689c-0.27759.04117-.55147,0.10762-0.82672,0.16418-0.17653.03626-.21612-0.0548-0.20895-0.2081,0.01189-.25412.03839-0.50869,0.06552-0.75954,0.03821-.35289-0.042-0.70237.02426-1.05446,0.089-.473.159-0.94911,0.26239-1.42028a0.962,0.962,0,0,0-.29544-0.9566,3.37991,3.37991,0,0,1-.757-0.79967,0.31812,0.31812,0,0,0-.50347-0.039,0.58994,0.58994,0,0,1-.72274.09579c-0.28756-.126-0.32584-0.184-0.19912-0.47763,0.14284-.331.28668-0.66267,0.45456-0.98117a0.25463,0.25463,0,0,0-.08452-0.37591,2.54859,2.54859,0,0,1-.98-1.33817,0.64428,0.64428,0,0,0-.63347-0.59693,1.00007,1.00007,0,0,0-1.01866.09235,0.16745,0.16745,0,0,1-.12216.03949,0.202,0.202,0,0,0-.22789.17744,4.03,4.03,0,0,1-.82837,1.39417,0.85643,0.85643,0,0,0-.17589.90882,0.44514,0.44514,0,0,1,.002.209,2.122,2.122,0,0,0,.45456,1.89216,0.94033,0.94033,0,0,1,.09964,1.224,2.08407,2.08407,0,0,0-.30085,1.10571,6.42392,6.42392,0,0,1-.12987,1.49356,0.55944,0.55944,0,0,1-.43089.50189c-0.302.063-.58309,0.18334-0.87875,0.259A0.29107,0.29107,0,0,1,65.03087,41.75c-0.20073-.41739-0.41892-0.82638-0.62865-1.2395a0.29554,0.29554,0,0,1-.01534-0.07756,7.74759,7.74759,0,0,0-.471-1.559,0.48243,0.48243,0,0,1,.00505-0.39893A8.362,8.362,0,0,0,64.566,36.2326a0.51681,0.51681,0,0,0-.18469-0.48892,1.59407,1.59407,0,0,1-.57184-0.95229,0.37635,0.37635,0,0,0-.08869-0.18973,0.55154,0.55154,0,0,1-.08065-0.70588c0.21139-.43331.46247-0.84723,0.67425-1.28037,0.05542-.11338.05166-0.24064,0.2193-0.25275a0.52681,0.52681,0,0,1,.40413.0729,0.6481,0.6481,0,0,0,.14428.06218c0.33805,0.15066.35255,0.14677,0.53383-.15717a4.80739,4.80739,0,0,1,.95582-1.01933,0.80634,0.80634,0,0,1,.32476-0.1723,9.10607,9.10607,0,0,1,1.75029-.27276,4.28042,4.28042,0,0,0,.79493-0.19355,0.14335,0.14335,0,0,0,.12731-0.1179c0.00089-.093-0.09452-0.06069-0.14462-0.078-0.38762-.13395-0.79325-0.227-1.16331-0.39771a10.90388,10.90388,0,0,0-1.46021-.30982,0.354,0.354,0,0,0-.28433.02349,2.45817,2.45817,0,0,0-.997,1.00909,0.12185,0.12185,0,0,1-.15478.10513,1.94009,1.94009,0,0,1-.68736-0.18889c-0.62279-.40389-1.28955-0.73995-1.93867-1.10331a0.10844,0.10844,0,0,0-.12358.00422c-0.38652.25634-.79029,0.49038-1.15581,0.77378-0.39525.30646-.75654,0.657-1.12881,0.99259a0.29633,0.29633,0,0,1-.26745.0762,12.5881,12.5881,0,0,0-2.17447-.24931c-0.17923.00181-.1982-0.05705-0.1474-0.20224a1.62162,1.62162,0,0,1,.04109-0.20372A26.38686,26.38686,0,0,1,58.95513,28.434a0.62228,0.62228,0,0,0,.24022-0.38466,0.55206,0.55206,0,0,0-.43109-0.11367c-0.39016-.12275-0.78664-0.24224-1.18259-0.327a10.15424,10.15424,0,0,1-1.13512-.18268,8.78025,8.78025,0,0,0-1.44913-.22509,7.7068,7.7068,0,0,0-1.24627-.08508c-0.51087.002-1.02292-.06174-1.5325-0.0431-0.61676.02255-1.2221-.1304-1.84029-0.07344a4.79409,4.79409,0,0,1-.97365-0.01077c-0.59608-.06759-1.19569-0.05228-1.7916-0.109-0.6136-.05834-1.21562.13677-1.83768,0.05755-0.66956-.08526-1.35181-0.01936-2.02612-0.11915a3.49042,3.49042,0,0,0-.94645.00686,14.12046,14.12046,0,0,1-1.85823.12511c-0.62876-.00249-1.26288-0.05136-1.89385-0.0681a32.5515,32.5515,0,0,1-3.4647-.21772c-0.82755-.11092-1.65743-0.18836-2.48678-0.27594a1.21032,1.21032,0,0,1-.508-0.0655,2.24144,2.24144,0,0,0-.85441-0.22885c-0.59091-.08148-1.17778-0.20508-1.77908-0.22817A17.94127,17.94127,0,0,1,27.851,25.476c-0.54487-.08659-1.09187-0.1606-1.63263-0.28355-0.61516-.13985-1.24951-0.19357-1.8677-0.32225-0.84192-.17527-1.6683-0.41161-2.52522-0.53243A17.29273,17.29273,0,0,1,19.74663,23.9c-0.70369-.18953-1.44342-0.242-2.16355-0.37522a4.95169,4.95169,0,0,1-1.09166-.20342,7.62083,7.62083,0,0,0-2.15325-.48468c-0.76765-.09106-1.53913-0.14946-2.30757-0.23442-0.39013-.04314-0.44678-0.02294-0.55109.36582-0.10742.40034-.24481,0.79009-0.38378,1.17984-0.05072.14222-.1668,0.319-0.275,0.27644-0.39938-.15732-0.82921-0.142-1.23066-0.26762a6.14078,6.14078,0,0,1-1.059-.47345,0.28855,0.28855,0,0,0-.24533-0.04157c-0.09161.04195-.02969,0.14495-0.02776,0.219,0.00437,0.1679.01558,0.33633,0.03663,0.503a15.78141,15.78141,0,0,1,.30814,2.16017,2.40345,2.40345,0,0,0,.05782.65,1.16118,1.16118,0,0,1-.18115.87358c-0.22766.42535-.49263,0.83055-0.7302,1.25086-0.17631.31194-.33369,0.63459-0.5004,0.952a10.212,10.212,0,0,0-.69037,1.33739,19.23165,19.23165,0,0,1-1.43031,3.40562,0.583,0.583,0,0,0-.07791.35484c0.0481,0.53756.104,1.07439,0.15595,1.61161,0.01785,0.18478.019,0.37976,0.28559,0.36411-0.06141.13266-.12322,0.24737-0.169,0.36814a18.41513,18.41513,0,0,1-.99355,2.40079,1.64925,1.64925,0,0,0-.20631,1.281c0.05877,0.21253.13032,0.42154,0.19,0.63382a13.36948,13.36948,0,0,1,.44042,1.6741,9.69891,9.69891,0,0,0,.16535,1.07351c0.30409,1.15061.70372,2.27278,0.99023,3.431,0.23991,0.9698.53116,1.92889,0.791,2.89514C6.9181,51.893,7.16527,52.69581,7.35734,53.516a3.17933,3.17933,0,0,0,.94935,1.665c0.43275,0.38935.90152,0.73851,1.3374,1.12458,0.39008,0.34548.80885,0.65208,1.22661,0.96a6.36248,6.36248,0,0,1,1.05745,1.27225,8.03968,8.03968,0,0,1,.581.75393,1.12612,1.12612,0,0,0,.90254.75321c0.38888,0.01852.77246,0.17782,1.16021,0.18573,0.952,0.0194,1.87257.2805,2.81937,0.325a0.2933,0.2933,0,0,1,.18379.09205,2.81505,2.81505,0,0,0,.44429.32912,1.72769,1.72769,0,0,1,.54987.51213,2.72972,2.72972,0,0,0,1.37316,1.34657c0.66013,0.28439,1.37286.38977,2.03192,0.67409a10.607,10.607,0,0,0,2.30023.47958c1.07578,0.20286,2.14815.418,3.20411,0.69882a23.612,23.612,0,0,0,2.94325.66381,3.1562,3.1562,0,0,0,1.50407-.15141,8.05385,8.05385,0,0,1,.99607-0.33662,0.441,0.441,0,0,1,.4506.01122,3.68685,3.68685,0,0,0,.7572.6184,7.832,7.832,0,0,0,.99641.76994,0.49964,0.49964,0,0,1,.3383.40928,5.51563,5.51563,0,0,0,.09835.78659,3.01016,3.01016,0,0,0,.27324.95329,6.29206,6.29206,0,0,0,.8353.946c0.25289,0.26747.51784,0.5236,0.77894,0.78325C37.80077,70.4903,38.15255,70.83729,38.53221,71.21313Zm25.96328-2.95461a1.38067,1.38067,0,0,0,.28007.65845A1.11927,1.11927,0,0,0,64.49549,68.25852Z"/></svg>
