<?xml version="1.0" encoding="UTF-8"?>
<!DOCTYPE svg  PUBLIC '-//W3C//DTD SVG 1.1//EN'  'http://www.w3.org/Graphics/SVG/1.1/DTD/svg11.dtd'>
<svg enable-background="new 0 0 612 792" version="1.1" viewBox="0 0 612 792" xml:space="preserve" xmlns="http://www.w3.org/2000/svg">
<path d="m23.302 343.65c-0.357-2.196-0.239-4.443 0.347-6.588 0.734-2.078 1.605-4.104 2.606-6.067 1.35-2.813 2.311-5.788 3.746-8.568 0.407-1.301 0.331-2.705-0.215-3.954-0.762-4.042-1.228-8.135-1.393-12.245-0.092-1.088 0.133-2.179 0.648-3.142 0.657-1.522 1.415-2.999 2.268-4.42 2.255-3.042 3.805-6.547 4.537-10.262 0.49-2.309 1.35-4.523 2.548-6.556 2.805-5.154 5.613-10.307 8.424-15.457 0.246-0.482 0.551-0.932 0.908-1.338 2.442-2.801 3.341-6.627 2.404-10.223-0.475-3.007-0.381-6.1-0.809-9.118-0.533-3.762 0.172-7.574-0.613-11.303-0.35-0.696-0.069-1.543 0.626-1.893 0.327-0.164 0.705-0.195 1.054-0.086 2.094 0.035 4.157 0.511 6.054 1.396 2.805 1.489 5.79 2.611 8.882 3.338 0.949 0.205 1.039-0.331 1.204-0.837 0.719-2.202 1.406-4.415 2.061-6.638 1e-3 -1.978 1.605-3.582 3.584-3.581 0.483 0 0.96 0.098 1.404 0.287 2.946 0.352 5.928 0.388 8.877 0.718 6.005 0.674 11.911 1.908 17.822 3.163 7.362 1.869 14.838 3.258 22.381 4.158 2.942 0.26 5.847 0.833 8.667 1.71 4.65 1.412 9.484 1.834 14.169 3.007 3.081 0.772 6.241 1.108 9.354 1.702 5.999 1.144 12.071 1.843 18.057 3.092 3.361 0.701 6.823 0.9 10.221 1.442 3.978 0.635 7.891 1.607 11.828 2.451 3.14 0.673 6.209 1.608 9.352 2.251 2.3 0.308 4.616 0.483 6.936 0.525 4.178 0.367 8.353 0.793 12.538 1.041 4.892 0.29 9.751 1.045 14.677 0.921 2.742-0.069 5.463 0.502 8.22 0.561 2.737 0.059 5.459-0.026 8.187-0.15 5.239-0.378 10.495-0.467 15.743-0.268 5.125 0.328 10.277 0.744 15.404 0.644 6.037-0.118 12.072-0.156 18.103-0.015 5.431 0.127 10.859 0.465 16.285 0.828 5.663 0.379 11.343 0.496 17.013 0.837 3.857 0.232 7.527 1.272 11.3 1.825 3.363 0.448 6.685 1.158 9.937 2.124 0.976 0.265 1.986 0.387 2.997 0.36 0.98 0.199 1.885 0.67 2.609 1.36 0.642 0.324 0.283 0.999 0.081 1.435-1.942 4.195-4.444 8.107-6.211 12.402-0.574 1.394-1.07 2.824-1.7 4.193-0.385 0.836 0.036 0.964 0.676 0.936 2.619 0.273 5.218 0.714 7.781 1.321 0.939 0.188 1.914-0.036 2.676-0.615 2.908-2.323 5.934-4.501 8.81-6.862 1.312-1.35 2.729-2.593 4.236-3.72 1.312-0.779 2.823-0.509 4.119-1.245 0.703-0.174 1.445 0.045 1.94 0.573 1.965 1.321 3.811 2.81 5.519 4.45 1.171 1.122 2.49 2.078 3.921 2.842 0.86 0.653 2.086 0.486 2.739-0.374 1e-3 -2e-3 3e-3 -3e-3 4e-3 -5e-3 2.566-2.855 6.417-3.888 9.186-6.472 0.597-0.529 1.485-0.563 2.121-0.081 3.748 2.018 7.797 3.415 11.991 4.139 1.604 0.41 3.11 1.121 4.688 1.626 1.141 0.711 1.669 2.096 1.292 3.386-6e-3 1.106-1.056 1.191-1.954 1.25-5.387 0.358-10.66 1.504-15.975 2.353-0.898 0.218-1.71 0.698-2.333 1.38-2.094 2.107-3.976 4.414-5.62 6.888-0.697 1.231-2.261 1.664-3.492 0.966-0.209-0.119-0.401-0.266-0.569-0.438-2.159-2.067-3.088-0.972-3.94 0.686-0.91 1.771-1.818 3.543-2.758 5.299-0.68 1.197-0.706 2.657-0.069 3.878 0.56 1.626 1.233 3.211 2.014 4.743 0.364 0.728 0.911 1.349 1.588 1.801 1.623 0.887 2.405 2.788 1.877 4.56-0.376 3.192-1.173 6.32-2.371 9.303-1.159 2.709-1.278 5.75-0.334 8.542 1.112 3.523 1.941 7.137 3.305 10.586 0.059 0.15 0.078 0.315 0.138 0.464 0.345 2.137 2.358 3.59 4.495 3.245 0.48-0.078 0.942-0.244 1.361-0.49 0.046-0.028 0.096-0.05 0.148-0.066 2.093-0.016 3.777-1.726 3.762-3.819-2e-3 -0.261-0.031-0.521-0.086-0.776 0.365-2.232 0.334-4.511-0.091-6.732-0.11-1.346 0.161-2.696 0.782-3.896 0.115-0.354 0.323-0.676 0.446-1.028 1.412-1.573 1.956-3.743 1.451-5.796-0.8-1.951-1.965-3.732-3.431-5.247-0.991-0.785-1.551-1.994-1.508-3.257 0.218-2.8 0.036-5.618-0.54-8.367-0.321-1.569 0.298-3.181 1.587-4.131 2.167-1.955 3.759-4.464 4.604-7.258 0.566-3.46 3.682-5.914 7.179-5.653 2.953 0.021 5.897 0.315 8.795 0.879 0.992-0.138 1.908 0.554 2.047 1.546 0.021 0.153 0.023 0.308 5e-3 0.462-0.138 3.016 1.299 5.888 3.795 7.587 0.937 0.882 1.752 1.886 2.423 2.985 0.263 0.288 0.305 0.715 0.104 1.049-1.353 2.417-2.411 4.986-3.153 7.655-0.153 0.608-0.369 1.124 0.438 1.455 0.518 0.368 1.235 0.247 1.603-0.271 0.059-0.083 0.107-0.174 0.142-0.27 0.208-0.44 0.445-0.865 0.709-1.274 0.191-0.605 0.837-0.94 1.442-0.749 0.19 0.06 0.36 0.168 0.496 0.314 1.592 0.768 3.103 1.695 4.509 2.767 2.273 2.327 3.781 5.217 5.859 7.68 0.126 0.237 0.167 0.51 0.117 0.773-0.255 3.078-0.598 6.144-1.083 9.197-0.449 2.487-0.678 5.008-0.687 7.534 0.021 1.175-0.834 2.043-0.786 3.244 0.038 0.948 0.098 1.205 1.162 1.273 3.857 0.115 7.607-1.273 10.461-3.87 3.395-2.643 6.939-5.088 10.616-7.323 5.279-3.282 10.14-7.163 15.287-10.635 0.57-0.385 0.64-0.745 0.044-1.217-0.494-0.334-0.91-0.772-1.217-1.283-0.949-1.823-0.857-1.893 0.819-3.004 5.976-3.963 12.632-6.73 18.639-10.613 2.454-1.586 5.068-2.848 7.551-4.359 0.688-0.35 1.138-1.039 1.182-1.809 0.493-2.654 0.661-5.358 0.501-8.053-0.081-0.664 0.255-1.309 0.846-1.624 4.942-3.644 10.127-6.945 15.519-9.882 2.99-1.642 5.578-3.849 8.388-5.74 2.654-1.776 5.662-2.954 8.816-3.454 1.705-0.477 3.005-1.858 3.379-3.588 1.276-3.149 4.016-5.472 7.332-6.214 0.859-0.229 1.443-1.026 1.402-1.915 0.475-3.79 0.991-7.575 1.402-11.371 0.474-4.374 0.83-8.761 1.285-13.138 0.173-1.668 0.728-1.922 2.467-1.897 2.194 0.168 4.4 0.095 6.578-0.219 3.08-0.624 5.155 0.114 5.075 3.868 0.034 0.863 0.213 1.714 0.53 2.517 0.409 1.833 0.495 3.724 0.256 5.586-0.104 0.539 0.099 1.092 0.526 1.437 2.783 1.843 4.927 4.421 7.522 6.491 1.701 1.357 3.632 2.297 5.377 3.557 3.565 2.575 3.172 3.577 0.402 6.059-2.544 2.279-4.742 4.857-7.201 7.184-2.565 2.426-4.593 5.31-7.075 7.79-1.097 1.13-1.963 2.463-2.55 3.924-1.877 4.463-5.615 7.712-7.805 11.856-2.055 3.069-4.963 5.47-8.365 6.906-5.273 2.661-10.316 5.755-15.077 9.251-0.882 0.748-1.23 1.952-0.884 3.055 0.549 2.893 1.119 5.785 1.573 8.694 0.707 4.951 1.065 9.946 1.073 14.948 0.038 2.629 0.262 5.274 0.493 7.865 0.025 1.402-0.205 2.796-0.679 4.116-0.914 3.703-2.647 7.144-3.544 10.878-0.075 1.677-1.2 3.123-2.806 3.61-0.802 0.168-0.514 2.477 0.385 3.335 2.912 2.347 3.645 6.482 1.719 9.687-0.134 0.299-0.36 0.548-0.646 0.71-1.878 0.957-3.66 2.092-5.319 3.392-0.664 0.433-0.801 0.784-1.306-0.485-1.436-3.611-1.544-7.554-3.111-11.089-0.606-1.368-1.085-1.375-2.279-0.486-1.881 1.315-2.662 3.718-1.913 5.887 0.571 2.42 0.476 2.465-1.974 3.219-1.411 0.391-2.73 1.061-3.878 1.97-0.383 0.319-0.78 0.76-0.09 1.147 4.515 2.53 9.293 4.576 13.623 7.445 0.081 0.072 0.177 0.126 0.282 0.158 3.143 0.796 5.336 3.635 5.312 6.877 0.628 2.007 0.921 4.104 0.869 6.207-7e-3 2.528 0.357 5.043 1.081 7.464 0.243 1.687-0.182 3.403-1.185 4.781-0.827 1.354-1.779 2.628-2.842 3.805-3.99 5.031-8.028 10.019-12.163 14.935-1.921 2.284-3.758 4.701-5.493 7.154-2.58 3.647-5.883 6.651-8.715 10.077-3.819 4.618-7.307 9.448-10.71 14.372-1.907 2.546-3.623 5.229-5.134 8.028-1.817 3.609-3.132 7.45-3.91 11.415-0.085 0.591-4e-3 1.195 0.232 1.744 1.163 3.167 2.49 6.27 3.977 9.298 1.353 2.648 2.074 5.611 3.283 8.342 1.576 3.119 2.989 6.319 4.234 9.584 2.659 6.905 5.76 13.631 9.285 20.137 1.533 2.739 1.724 6.03 0.517 8.928-0.905 2.591-1.374 5.313-1.387 8.057-0.106 1.188-0.23 1.931-1.704 1.821-0.74-9e-3 -1.463 0.214-2.07 0.638-1.875 1.353-4.438 1.219-6.162-0.322-2.3-1.587-4.767-2.918-7.356-3.968-3.09-1.595-5.644-4.062-7.346-7.094-1.894-3.14-4.255-5.933-6.187-9.027-1.934-3.098-3.943-6.145-5.706-9.357-1.206-2.198-2.866-4.138-4.164-6.321-0.602-1.496-1.354-2.926-2.246-4.27-0.159-0.216-0.302-0.443-0.428-0.678-1.163-2.303-3.972-3.228-6.275-2.065-0.353 0.178-0.682 0.4-0.978 0.661-2.03 1.295-4.062 2.603-6.185 3.731-1.788 0.548-3.731 0-4.968-1.401-2.268-3.485-6.258-5.452-10.403-5.131-2.152 0.038-4.301 0.19-6.437 0.455-0.378-0.025-0.757 0.042-1.104 0.196-2.094 1.488-4.965 1.202-6.725-0.669-1.142-1.038-2.807-1.261-4.183-0.561-3.849 1.645-8.113 2.06-12.207 1.188-1.973-0.19-3.96-0.199-5.935-0.027-1.068 0.157-1.806 1.15-1.649 2.218 0.029 0.199 0.089 0.392 0.177 0.572 1.484 2.56 2.207 5.49 2.083 8.446 0.065 0.433-0.156 0.86-0.549 1.055-1.821 1.32-3.567 2.74-5.229 4.253-0.927 0.613-1.984 1-3.088 1.13-3.242 0.293-6.423-0.494-9.666-0.486-3.187 0.082-6.375-0.099-9.532-0.541-3.635-0.593-7.319-0.908-10.989-1.26-1.083-0.037-2.167 7e-3 -3.244 0.134-1.779 0.264-3.497-0.76-4.112-2.45-0.496-2.033-2.546-3.279-4.579-2.783-0.72 0.176-1.374 0.559-1.878 1.103-4.454 3.213-8.587 6.849-12.343 10.855-1.249 1.487-2.088 3.274-2.432 5.185 0.1 1.37-0.931 2.562-2.301 2.662-0.692 0.05-1.374-0.191-1.881-0.665-2.322-1.244-5.182-0.852-7.083 0.971-3.796 2.546-7.362 5.419-10.656 8.588-1.094 0.591-1.502 1.958-0.911 3.052 0.098 0.182 0.221 0.349 0.364 0.497 0.78 1.196 1.02 2.665 0.661 4.046-0.511 3.239-0.889 6.488-1.189 9.751-0.214 1.605-0.734 3.153-1.532 4.561-0.523 1.022-1.153 1.576-2.524 0.589-1.708-0.984-3.481-1.852-5.306-2.597-3.477-1.834-6.475-4.458-10.005-6.202-1.67-1.162-3.466-2.133-5.353-2.893-0.596-0.463-1.027-1.105-1.228-1.833-3.569-4.323-7.026-8.744-10.703-12.972-4.988-5.736-10.132-11.336-15.228-16.976-1.293-1.431-3.181-2.177-5.103-2.016-2.859 0.232-5.73 0.291-8.596 0.175-0.694-0.148-1.383 0.271-1.57 0.956-1.007 2.436-2.177 4.802-3.502 7.082-0.284 0.728-1.104 1.088-1.832 0.804-0.291-0.114-0.537-0.32-0.698-0.588-2.589-3.183-5.373-6.202-8.335-9.04-2.662-2.69-5.354-5.348-8.076-7.974-0.546-0.606-0.876-1.375-0.94-2.188-0.498-2.703-1.251-5.352-2.249-7.913-1.465-2.812-3.543-5.258-6.08-7.16-1.601-1.518-3.49-2.73-5.124-4.216-0.803-0.854-2.059-1.107-3.13-0.63-2.317 0.965-4.797 1.373-7.13 2.4-2.013 0.802-4.204 1.052-6.346 0.725-3.146-0.426-6.3-0.995-9.373-1.657-3.18-0.642-6.323-1.458-9.415-2.443-3.336-1.045-6.738-1.863-10.185-2.449-4.06-0.768-8.021-1.979-12.06-2.871-2.8-0.619-5.635-0.685-8.424-1.228-4.342-1.002-8.626-2.241-12.832-3.71-1.625-0.504-3.347-0.688-5.001-1.111-4.333-1.405-7.772-4.736-9.316-9.021-1.435-3.142-4.446-5.273-7.886-5.582-2.385-0.354-4.755-0.805-7.138-1.17-3.522-0.507-7.069-0.818-10.625-0.931-0.815 0.041-1.625-0.16-2.326-0.579-0.665-0.349-1.418-0.493-2.164-0.416-1.687 0.119-3.323-0.606-4.369-1.935-3.791-4.964-6.826-10.487-10.992-15.144-1.978-1.893-4.084-3.648-6.303-5.253-4.096-2.875-7.886-6.162-11.31-9.811-2.166-2.74-3.673-5.942-4.403-9.357-1.353-6.598-3.533-12.967-5.045-19.511-1.053-4.562-2.899-8.883-3.834-13.481-1.639-8.065-4.388-15.826-6.732-23.694-1.688-5.656-2.954-11.391-4.188-17.138zm212.52 182.17c0.888-2.01 1.604-3.881 2.532-5.639 0.208-1.335 1.327-2.339 2.677-2.403 2.832 0.328 5.699 0.138 8.463-0.561 2.567-0.368 5.146 0.585 6.855 2.535 2.676 2.391 4.935 5.243 7.548 7.712 3.199 3.102 6.202 6.401 8.99 9.877 2.417 2.935 4.824 5.895 7.283 8.799 2.44 3.218 5.517 5.899 9.039 7.875 5.145 2.381 10.039 5.271 14.608 8.628 0.755 0.594 1.049 0.246 1.29-0.397 0.224-0.598 0.347-1.232 0.553-1.837 0.81-3.321 1.358-6.701 1.639-10.108 0.25-1.28-0.061-2.606-0.853-3.641-1.324-1.87-1.396-2.42 0.221-4.117 1.751-1.837 3.613-3.57 5.445-5.329 2.195-2.108 5.116-3.176 7.413-5.148 2.143-2.064 5.462-2.283 7.858-0.517 0.792 0.496 1.03 0.136 1.298-0.508 0.622-1.492 1.232-2.991 1.917-4.454 0.537-1.752 1.567-3.313 2.967-4.495 1.629-0.91 3.123-2.044 4.436-3.37 2.84-3.091 6.236-5.62 10.01-7.455 0.342-0.254 0.81-0.253 1.15 3e-3 1.957 1.124 3.64 2.668 4.927 4.522 0.646 1.017 1.835 1.553 3.025 1.364 1.768-0.174 3.549-0.156 5.313 0.052 2.569 0.53 5.16-0.343 7.749 0.136 1.749 0.353 3.536 0.478 5.317 0.373 4.414-0.099 8.829 0.099 13.216 0.595 2.19 0.19 4.368-0.484 6.069-1.877 0.982-0.587 1.301-1.859 0.714-2.841-0.048-0.08-0.102-0.157-0.16-0.23-0.928-1.696-1.729-3.459-2.396-5.273-0.314-0.587-0.272-1.301 0.11-1.847 1.299-2.275 3.353-4.024 5.805-4.945 0.824-0.1 1.562-0.572 2.163 0.399 0.201 0.172 0.457 0.267 0.721 0.268 4.026 0.516 8.115 0.162 11.992-1.04 2.805-1.245 6.074-0.795 8.438 1.162 0.551 0.51 1.314 0.723 2.049 0.569 4.487-1.138 9.141-1.465 13.742-0.964 1.608-0.332 3.279 0.11 4.513 1.194 1.083 1.211 2.246 2.349 3.48 3.405 1.067 1.311 2.92 1.668 4.397 0.846 2.67-1.249 5.334-2.511 8.001-3.765 0.517-0.208 0.87-0.692 0.91-1.248 0.037-0.37 0.257-0.657 0.649-0.474 1.1 0.365 2.134 0.907 3.06 1.605 1.205 1.231 2.25 2.609 3.111 4.101 2.96 4.975 6.613 9.493 9.447 14.55 1.56 2.784 2.992 5.625 4.751 8.324 1.571 2.409 2.966 4.978 4.637 7.345 0.734 1.593 2.074 2.827 3.721 3.428 4.456 1.38 8.778 3.164 12.91 5.328 1.26 0.493 2.682-0.129 3.175-1.389 0.047-0.119 0.084-0.242 0.111-0.368 0.297-3.283 0.883-6.516 1.475-9.754 0.471-1.668 0.328-3.45-0.402-5.023-3.132-5.943-5.977-12.03-8.804-18.127-0.994-2.613-2.163-5.156-3.499-7.611-1.492-2.649-2.736-5.43-3.715-8.308-1.442-3.538-2.377-7.251-4.028-10.727-1.23-2.172-1.608-4.723-1.062-7.159 0.887-2.999 1.972-5.935 3.248-8.79 2.036-4.247 4.512-8.268 7.386-11.999 5.464-7.757 11.49-15.054 17.667-22.231 2.805-3.228 5.38-6.649 7.705-10.238 3.788-6.296 8.301-12.127 13.446-17.373 0.295-0.16 0.451-0.495 0.383-0.824-0.294-1.86-0.431-3.741-0.409-5.623-0.851-4.243-2.443-8.304-3.079-12.598-0.185-0.82-0.824-1.461-1.644-1.647-2.7-1.044-5.466-1.894-8.086-3.172-2.902-1.647-5.68-3.504-8.31-5.557-0.748-0.511-0.622-1.078-0.017-1.882 1.389-1.534 3.114-2.726 5.04-3.482 1.087-0.566 1.973-0.919 1-2.312-0.278-0.335-0.365-0.79-0.23-1.204 0.805-2.157 1.836-4.221 3.078-6.16 0.601-1.284 2.128-1.838 3.412-1.237 0.618 0.289 1.096 0.813 1.327 1.455 1.404 3.201 2.521 6.519 3.339 9.917 0.11 0.412-0.015 1.065 0.616 1.069 1.735-0.127 3.244-1.238 3.881-2.857-0.041-2.463-0.789-4.863-2.156-6.913-1.606-1.34-2.39-3.425-2.065-5.491 0.171-0.955 0.292-1.921 0.506-2.866 0.104-0.384 0.462-0.643 0.859-0.622 0.693-0.132 1.403-0.15 2.101-0.054 1.347 0.447 1.543-0.271 1.797-1.295 0.343-1.405 0.788-2.784 1.332-4.124 1.35-3.107 2.04-6.461 2.025-9.849-0.078-4.001-0.709-7.956-0.736-11.954 0.218-4.926-0.279-9.858-1.476-14.642-0.289-1.366-0.681-2.707-1.174-4.013-0.485-1.016-0.275-2.227 0.523-3.021 0.666-0.779 1.403-1.495 2.202-2.137 4.593-3.246 9.488-6.041 14.617-8.349 3.301-1.362 6.068-3.764 7.881-6.84 1.632-3.159 3.536-6.173 5.375-9.222 2.918-4.283 6.187-8.316 9.772-12.058 2.876-3.364 6.374-6.089 9.536-9.161 0.474-0.461 0.565-0.634-0.027-1.208-1.8-1.175-3.515-2.475-5.134-3.889-2.018-2.615-4.607-4.733-7.57-6.192-0.936-0.398-1.49-1.372-1.354-2.38 0.158-3.883-0.487-7.757-1.896-11.379-0.205-0.663-0.806-1.124-1.5-1.149-2.118-0.333-4.173 0.571-6.224 0.281-0.918-0.338-1.936 0.132-2.274 1.05-0.103 0.279-0.133 0.579-0.09 0.873-0.316 3.151-0.456 6.314-0.887 9.459-0.648 3.967-1.064 7.969-1.247 11.984 0.325 2.161-1.077 4.206-3.211 4.681-3.073 0.823-5.51 3.164-6.455 6.202-0.609 1.894-2.276 3.252-4.255 3.464-2.523 0.507-4.956 1.385-7.222 2.604-2.683 1.578-4.884 3.867-7.712 5.245-4.029 1.963-7.592 4.7-11.447 6.952-3.136 1.247-5.317 4.136-5.658 7.493-0.035 1.009-0.089 2.017-0.094 3.026 0.368 2.068-0.643 4.137-2.501 5.119-1.55 0.725-3.067 1.533-4.549 2.391-4.321 2.501-8.628 5.027-12.921 7.578-2.552 1.374-5.025 2.89-7.407 4.542 0.375 0.272 0.628 0.478 0.902 0.649 1.602 1.002 1.701 1.971 0.287 3.216-0.872 0.807-1.786 1.567-2.738 2.278-4.604 3.267-9.18 6.579-13.873 9.714-4.287 2.864-8.634 5.646-12.7 8.811-1.877 1.622-4.152 2.714-6.591 3.163-1.699 0.252-3.375 0.659-5.06 1.005-1.08 0.222-1.323-0.335-1.279-1.274 0.073-1.555 0.235-3.113 0.401-4.648 0.234-2.16-0.257-4.298 0.148-6.453 0.545-2.895 0.973-5.809 1.606-8.692 0.54-2.136-0.157-4.395-1.808-5.854-1.801-1.367-3.366-3.02-4.633-4.894-0.586-0.901-1.792-1.157-2.694-0.571-0.143 0.093-0.274 0.205-0.388 0.332-1.163 1.192-2.99 1.434-4.423 0.586-1.76-0.771-1.994-1.126-1.219-2.923 0.874-2.026 1.754-4.056 2.782-6.005 0.512-0.692 0.366-1.668-0.326-2.18-0.061-0.045-0.125-0.085-0.191-0.121-2.856-1.985-4.967-4.867-5.998-8.19-0.15-2.039-1.833-3.624-3.877-3.653-2.025-0.969-4.417-0.752-6.234 0.565-0.207 0.177-0.476 0.264-0.748 0.242-0.677-0.092-1.299 0.382-1.391 1.059l-3e-3 0.027c-1.094 3.158-2.819 6.061-5.07 8.532-1.416 1.484-1.837 3.657-1.076 5.562 0.106 0.419 0.11 0.858 0.012 1.279-1.002 4.083 0.035 8.398 2.782 11.58 2.031 2.001 2.29 5.188 0.61 7.491-1.234 2.039-1.872 4.384-1.841 6.767 0.093 3.067-0.174 6.135-0.795 9.141-0.115 1.49-1.182 2.733-2.637 3.072-1.848 0.386-3.569 1.122-5.378 1.585-0.893 0.412-1.952 0.023-2.364-0.87-0.012-0.026-0.023-0.052-0.034-0.078-1.228-2.554-2.564-5.057-3.847-7.586-0.052-0.153-0.084-0.313-0.094-0.475-0.623-3.273-1.589-6.471-2.883-9.541-0.342-0.78-0.331-1.67 0.031-2.441 1.951-4.368 3.28-8.987 3.948-13.724 0.192-1.128-0.24-2.273-1.13-2.992-1.828-1.46-3.07-3.529-3.5-5.828-0.067-0.431-0.256-0.833-0.543-1.161-1.194-1.128-1.402-2.952-0.494-4.32 1.294-2.652 2.83-5.185 4.126-7.836 0.339-0.694 0.316-1.473 1.342-1.547 0.851-0.192 1.743-0.031 2.473 0.446 0.278 0.162 0.574 0.29 0.883 0.381 2.069 0.922 2.158 0.898 3.267-0.962 1.636-2.353 3.606-4.455 5.85-6.238 0.573-0.5 1.253-0.861 1.988-1.054 3.508-0.903 7.095-1.462 10.712-1.669 1.656-0.239 3.285-0.635 4.865-1.185 0.392-0.038 0.711-0.333 0.779-0.722 5e-3 -0.569-0.578-0.371-0.885-0.477-2.372-0.82-4.855-1.389-7.119-2.434-2.932-0.835-5.918-1.469-8.936-1.896-0.575-0.198-1.206-0.146-1.74 0.144-2.597 1.414-4.719 3.562-6.102 6.176-0.041 0.41-0.406 0.709-0.816 0.669-0.045-4e-3 -0.089-0.013-0.132-0.025-1.462-0.122-2.888-0.514-4.207-1.156-3.811-2.472-7.892-4.528-11.865-6.752-0.233-0.15-0.534-0.14-0.756 0.026-2.366 1.569-4.837 3.001-7.074 4.736-2.419 1.876-4.63 4.021-6.908 6.075-0.434 0.418-1.048 0.592-1.637 0.466-4.383-0.894-8.836-1.405-13.308-1.526-1.097 0.011-1.213-0.349-0.902-1.238 0.057-0.421 0.141-0.837 0.251-1.247 2.146-4.977 4.542-9.843 7.178-14.579 0.769-0.572 1.294-1.412 1.47-2.354-0.743-0.592-1.7-0.845-2.638-0.696-2.388-0.751-4.814-1.483-7.237-2.001-2.335-0.241-4.654-0.614-6.947-1.118-2.913-0.706-5.879-1.166-8.869-1.378-2.524-0.38-5.075-0.554-7.627-0.521-3.127 0.012-6.26-0.378-9.379-0.264-3.775 0.138-7.479-0.798-11.263-0.449-1.983 0.18-3.98 0.158-5.959-0.066-3.648-0.414-7.318-0.32-10.965-0.667-3.755-0.357-7.44 0.837-11.247 0.352-4.098-0.522-8.273-0.118-12.4-0.729-1.924-0.249-3.872-0.235-5.792 0.042-3.77 0.505-7.569 0.761-11.372 0.766-3.848-0.015-7.729-0.314-11.59-0.417-7.087-0.067-14.165-0.511-21.204-1.332-5.065-0.679-10.143-1.153-15.219-1.689-1.053 0.09-2.113-0.047-3.109-0.401-1.633-0.81-3.41-1.286-5.229-1.401-3.616-0.499-7.208-1.255-10.888-1.396-4.342-0.537-8.647-1.333-12.894-2.384-3.335-0.53-6.682-0.983-9.992-1.735-3.765-0.856-7.647-1.185-11.43-1.972-5.153-1.073-10.21-2.519-15.454-3.258-4.292-0.631-8.541-1.526-12.722-2.679-4.307-1.16-8.834-1.481-13.241-2.296-2.267-0.163-4.508-0.581-6.681-1.245-4.225-1.623-8.665-2.622-13.178-2.966-4.698-0.557-9.419-0.915-14.122-1.435-2.388-0.264-2.734-0.14-3.373 2.239-0.657 2.45-1.498 4.835-2.349 7.221-0.31 0.87-1.021 1.952-1.683 1.692-2.444-0.963-5.075-0.869-7.532-1.638-2.247-0.759-4.417-1.729-6.481-2.898-0.436-0.307-0.988-0.401-1.501-0.254-0.561 0.257-0.182 0.887-0.17 1.34 0.027 1.028 0.095 2.058 0.224 3.078 0.933 4.358 1.563 8.775 1.886 13.22-0.063 1.336 0.056 2.674 0.354 3.978 0.357 1.859-0.042 3.783-1.109 5.346-1.393 2.603-3.015 5.083-4.469 7.655-1.079 1.909-2.042 3.884-3.062 5.826-1.608 2.621-3.02 5.356-4.225 8.185-2.242 7.212-5.174 14.192-8.753 20.842-0.386 0.655-0.553 1.415-0.477 2.172 0.294 3.29 0.636 6.575 0.954 9.863 0.109 1.131 0.116 2.324 1.748 2.228-0.376 0.812-0.754 1.514-1.034 2.253-1.678 5.035-3.71 9.944-6.081 14.693-1.474 2.331-1.931 5.164-1.263 7.84 0.36 1.301 0.798 2.58 1.163 3.879 1.119 3.353 2.019 6.776 2.695 10.245 0.214 2.207 0.552 4.401 1.012 6.57 1.861 7.042 4.307 13.909 6.06 20.998 1.468 5.935 3.251 11.805 4.841 17.718 1.335 4.967 2.848 9.88 4.023 14.9 0.842 3.913 2.871 7.472 5.81 10.19 2.648 2.383 5.517 4.52 8.185 6.882 2.387 2.114 4.95 3.991 7.507 5.875 2.487 2.303 4.662 4.92 6.472 7.786 1.275 1.466 2.463 3.007 3.556 4.614 0.829 2.452 2.963 4.232 5.524 4.61 2.38 0.113 4.727 1.088 7.1 1.137 5.826 0.119 11.46 1.717 17.255 1.989 0.431 0.046 0.83 0.246 1.125 0.563 0.838 0.759 1.749 1.434 2.719 2.014 1.338 0.785 2.487 1.855 3.365 3.134 1.709 3.676 4.696 6.604 8.404 8.241 4.04 1.74 8.402 2.385 12.435 4.125 4.569 1.497 9.291 2.481 14.077 2.935 6.584 1.242 13.147 2.558 19.609 4.277 5.911 1.737 11.928 3.094 18.013 4.063 3.098 0.441 6.257 0.123 9.205-0.927 1.985-0.819 4.021-1.507 6.096-2.06 0.862-0.484 1.92-0.458 2.758 0.069 1.37 1.462 2.928 2.734 4.634 3.785 1.903 1.732 3.942 3.308 6.098 4.712 1.113 0.369 1.918 1.342 2.07 2.505 0.085 1.617 0.286 3.226 0.602 4.814 0.231 2.024 0.796 3.995 1.672 5.834 1.506 2.096 3.218 4.036 5.112 5.79 1.548 1.637 3.169 3.204 4.767 4.793 2.15 2.13 4.303 4.253 6.626 6.553zm158.9-18.082c0.207 1.47 0.798 2.86 1.714 4.03-0.115-1.495-0.717-2.91-1.714-4.03z" fill="#fff" stroke="#fff"/>
<g fill="#fff">
	<path d="m164.34 283.7v48.193c0 7.748-2.515 13.672-7.544 17.773s-11.597 6.152-19.702 6.152c-7.813 0-14.152-2.059-19.019-6.177s-7.3-10.034-7.3-17.749v-48.193h9.619v48.157c0 5.367 1.53 9.441 4.59 12.222 3.06 2.782 7.096 4.172 12.109 4.172 5.273 0 9.529-1.39 12.769-4.172 3.239-2.781 4.858-6.855 4.858-12.222v-48.157h9.62z"/>
	<path d="m218.79 336.89c0-3.236-1.221-5.946-3.662-8.131-2.441-2.184-6.771-4.021-12.988-5.51-7.52-1.794-13.387-4.438-17.603-7.929s-6.323-7.88-6.323-13.167c0-5.546 2.271-10.18 6.812-13.9s10.425-5.58 17.651-5.58c7.78 0 13.973 2.132 18.579 6.396 4.606 4.265 6.828 9.212 6.665 14.844l-0.098 0.293h-9.18c0-4.167-1.375-7.536-4.126-10.107s-6.698-3.857-11.841-3.857c-4.785 0-8.456 1.083-11.011 3.247-2.556 2.165-3.833 4.989-3.833 8.472 0 3.093 1.383 5.672 4.15 7.739s7.259 3.882 13.477 5.444c7.487 1.855 13.184 4.59 17.09 8.203s5.859 8.089 5.859 13.428c0 5.729-2.344 10.335-7.031 13.818-4.688 3.483-10.808 5.225-18.359 5.225-7.097 0-13.371-1.929-18.823-5.786-5.453-3.857-8.098-9.009-7.935-15.454l0.098-0.293h9.18c0 4.558 1.676 8.024 5.029 10.4s7.503 3.564 12.451 3.564c4.85 0 8.691-1.02 11.523-3.058 2.833-2.038 4.249-4.805 4.249-8.301z"/>
	<path d="m280.94 336.48h-29.785l-6.738 18.311h-9.814l27.49-71.094h8.252l27.051 71.094h-9.814l-6.642-18.311zm-26.806-8.057h23.926l-11.719-32.373h-0.293l-11.914 32.373z"/>
	<path d="m219 391.7h9.619v51.416c0 6.348-2.01 11.386-6.03 15.112-4.021 3.728-9.237 5.591-15.649 5.591-6.836 0-12.272-1.741-16.309-5.225-4.037-3.482-5.974-8.528-5.811-15.137l0.098-0.293h9.229c0 4.395 1.115 7.675 3.345 9.839 2.229 2.165 5.379 3.247 9.448 3.247 3.548 0 6.445-1.194 8.691-3.586 2.246-2.391 3.369-5.587 3.369-9.588v-51.376z"/>
	<path d="m299.38 433.6c0 8.691-2.694 15.902-8.081 21.631-5.388 5.729-12.378 8.594-20.972 8.594-8.301 0-15.048-2.864-20.239-8.594-5.192-5.729-7.788-12.939-7.788-21.631v-12.646c0-8.658 2.596-15.869 7.788-21.631 5.191-5.761 11.938-8.642 20.239-8.642 8.594 0 15.584 2.873 20.972 8.618 5.387 5.746 8.081 12.964 8.081 21.655v12.646zm-9.619-12.744c0-6.51-1.758-11.849-5.273-16.016-3.516-4.166-8.236-6.25-14.16-6.25-5.6 0-10.067 2.084-13.403 6.25-3.337 4.167-5.005 9.506-5.005 16.016v12.744c0 6.576 1.668 11.947 5.005 16.113 3.336 4.167 7.804 6.25 13.403 6.25 5.957 0 10.685-2.075 14.185-6.226 3.499-4.15 5.249-9.529 5.249-16.138v-12.743z"/>
	<path d="m313.73 462.8v-71.093h23.193c7.422 0 13.232 1.604 17.432 4.809 4.199 3.207 6.299 8.017 6.299 14.429 0 3.158-1.01 5.981-3.027 8.472-2.019 2.49-4.672 4.338-7.959 5.542 4.297 0.912 7.674 3.012 10.132 6.299 2.457 3.288 3.687 7.113 3.687 11.475 0 6.511-2.108 11.483-6.323 14.917-4.216 3.435-9.937 5.151-17.163 5.151h-26.271zm9.62-40.869h15.576c3.58 0 6.494-0.984 8.74-2.954 2.246-1.969 3.369-4.712 3.369-8.228 0-3.841-1.213-6.714-3.638-8.618-2.426-1.904-5.917-2.856-10.474-2.856h-13.573v22.656zm0 7.568v25.732h16.65c4.361 0 7.764-1.078 10.205-3.234s3.662-5.213 3.662-9.169c0-4.15-1.018-7.41-3.052-9.777-2.035-2.367-5.168-3.552-9.399-3.552h-18.066z"/>
	<path d="m416.37 444.89c0-3.235-1.221-5.945-3.662-8.131-2.441-2.184-6.771-4.021-12.988-5.51-7.52-1.794-13.388-4.438-17.603-7.929-4.216-3.491-6.323-7.881-6.323-13.167 0-5.547 2.271-10.18 6.812-13.9s10.425-5.58 17.651-5.58c7.779 0 13.973 2.132 18.579 6.396 4.605 4.265 6.827 9.213 6.665 14.844l-0.098 0.293h-9.18c0-4.166-1.376-7.535-4.126-10.107-2.751-2.571-6.698-3.857-11.841-3.857-4.785 0-8.456 1.083-11.011 3.247-2.556 2.165-3.833 4.989-3.833 8.472 0 3.093 1.383 5.673 4.15 7.739 2.767 2.067 7.259 3.882 13.477 5.444 7.486 1.855 13.184 4.59 17.09 8.203s5.859 8.09 5.859 13.428c0 5.729-2.344 10.336-7.031 13.818-4.688 3.483-10.808 5.225-18.359 5.225-7.097 0-13.371-1.929-18.823-5.786-5.453-3.857-8.098-9.009-7.935-15.454l0.098-0.293h9.18c0 4.558 1.676 8.024 5.029 10.4 3.353 2.377 7.503 3.564 12.451 3.564 4.85 0 8.691-1.02 11.523-3.058 2.833-2.039 4.249-4.805 4.249-8.301z"/>
</g>
</svg>
